<?xml version="1.0" encoding="UTF-8"?>
<svg id="g-template_all_annotations-mobile-interactions-img" xmlns="http://www.w3.org/2000/svg" baseProfile="tiny" version="1.2" viewBox="0 0 375 641.8">
  <!-- Generator: Adobe Illustrator 29.3.1, SVG Export Plug-In . SVG Version: 2.1.0 Build 151)  -->
  <g>
    <rect x="-2.009" y="-1.217" width="379.427" height="641.576" fill="#fffcf5"/>
    <path d="M214.708,377.336c-4.895.141-5.101-8.954-.205-9.096,4.895-.141,5.101,8.954.205,9.096" fill="#d32a2a" stroke="#4682b4" stroke-linecap="round" stroke-linejoin="round" stroke-width=".755"/>
    <path d="M190.899,386.131c-4.895.141-5.101-8.954-.205-9.096,4.895-.141,5.101,8.954.205,9.096" fill="#d32a2a" stroke="#4682b4" stroke-linecap="round" stroke-linejoin="round" stroke-width=".755"/>
    <path d="M192.357,376.29c-4.895.141-5.101-8.954-.205-9.096s5.101,8.954.205,9.096" fill="#d32a2a" stroke="#4682b4" stroke-linecap="round" stroke-linejoin="round" stroke-width=".755"/>
    <path d="M196.39,388.523c-4.895.141-5.101-8.954-.205-9.096,4.895-.141,5.101,8.954.205,9.096" fill="#d32a2a" stroke="#4682b4" stroke-linecap="round" stroke-linejoin="round" stroke-width=".755"/>
    <path d="M185.719,389.179c-4.895.141-5.101-8.954-.205-9.096s5.101,8.954.205,9.096" fill="#d32a2a" stroke="#4682b4" stroke-linecap="round" stroke-linejoin="round" stroke-width=".755"/>
    <path d="M200.851,363.715c-3.981.037-4.033-7.074-.052-7.111,3.981-.037,4.033,7.074.052,7.111" fill="#d32a2a" stroke="#4682b4" stroke-linecap="round" stroke-linejoin="round" stroke-width=".755"/>
    <path d="M218.311,488.524c-4.521.042-4.585-8.746-.064-8.788s4.585,8.746.064,8.788" fill="#85edaf" stroke="#4682b4" stroke-linecap="round" stroke-linejoin="round" stroke-width=".755"/>
    <path d="M218.812,376.917c-4.55.132-4.735-8.049-.185-8.181,4.55-.132,4.735,8.049.185,8.181" fill="#d32a2a" stroke="#4682b4" stroke-linecap="round" stroke-linejoin="round" stroke-width=".755"/>
    <path d="M228.534,484.195c-4.707.044-4.767-8.172-.06-8.215,4.707-.044,4.767,8.172.06,8.215" fill="#85edaf" stroke="#4682b4" stroke-linecap="round" stroke-linejoin="round" stroke-width=".755"/>
    <path d="M211.536,478.118c-5.083.047-5.151-9.258-.068-9.305s5.151,9.258.068,9.305" fill="#85edaf" stroke="#4682b4" stroke-linecap="round" stroke-linejoin="round" stroke-width=".755"/>
    <path d="M220.751,476.88c-4.521.042-4.585-8.758-.064-8.8s4.585,8.758.064,8.8" fill="#85edaf" stroke="#4682b4" stroke-linecap="round" stroke-linejoin="round" stroke-width=".755"/>
    <path d="M211.604,487.449c-5.083.047-5.151-9.245-.068-9.292s5.151,9.245.068,9.292" fill="#85edaf" stroke="#4682b4" stroke-linecap="round" stroke-linejoin="round" stroke-width=".755"/>
    <path d="M230.763,479.557c-3.683.034-3.739-7.658-.056-7.692,3.683-.034,3.739,7.658.056,7.692" fill="#85edaf" stroke="#4682b4" stroke-linecap="round" stroke-linejoin="round" stroke-width=".755"/>
    <path d="M146.095,481.733" fill="#d32a2a" stroke="#4682b4" stroke-linecap="round" stroke-linejoin="round" stroke-width=".755"/>
    <path d="M146.023,471.773" fill="#d32a2a" stroke="#4682b4" stroke-linecap="round" stroke-linejoin="round" stroke-width=".755"/>
    <path d="M146.095,481.733" fill="#d32a2a" stroke="#4682b4" stroke-linecap="round" stroke-linejoin="round" stroke-width=".755"/>
    <path d="M228.475,475.945c-4.707.044-4.767-8.183-.06-8.227,4.707-.044,4.767,8.183.06,8.227" fill="#85edaf" stroke="#4682b4" stroke-linecap="round" stroke-linejoin="round" stroke-width=".755"/>
    <path d="M234.785,484.137c-4.969.046-5.029-8.169-.06-8.215s5.019,8.169.06,8.215" fill="#85edaf" stroke="#4682b4" stroke-linecap="round" stroke-linejoin="round" stroke-width=".755"/>
    <path d="M241.094,475.323c-5.387.05-5.462-10.259-.075-10.309,5.387-.05,5.462,10.259.075,10.309" fill="#85edaf" stroke="#4682b4" stroke-linecap="round" stroke-linejoin="round" stroke-width=".755"/>
    <path d="M251.274,482.832c-5.159.048-5.22-8.312-.061-8.36,5.159-.048,5.22,8.312.061,8.36" fill="#85edaf" stroke="#4682b4" stroke-linecap="round" stroke-linejoin="round" stroke-width=".755"/>
    <path d="M274.47,479.424c-5.562.052-5.635-9.909-.072-9.96s5.635,9.909.072,9.96" fill="#85edaf" stroke="#4682b4" stroke-linecap="round" stroke-linejoin="round" stroke-width=".755"/>
    <path d="M228.595,492.455c-4.707.044-4.767-8.183-.06-8.227,4.707-.044,4.767,8.183.06,8.227" fill="#85edaf" stroke="#4682b4" stroke-linecap="round" stroke-linejoin="round" stroke-width=".755"/>
    <path d="M230.819,487.27c-3.683.034-3.739-7.647-.056-7.681s3.739,7.647.056,7.681" fill="#85edaf" stroke="#4682b4" stroke-linecap="round" stroke-linejoin="round" stroke-width=".755"/>
    <path d="M228.414,467.685c-4.707.044-4.767-8.183-.06-8.227,4.707-.044,4.767,8.183.06,8.227" fill="#85edaf" stroke="#4682b4" stroke-linecap="round" stroke-linejoin="round" stroke-width=".755"/>
    <path d="M230.707,471.833c-3.683.034-3.739-7.658-.056-7.692,3.683-.034,3.739,7.658.056,7.692" fill="#85edaf" stroke="#4682b4" stroke-linecap="round" stroke-linejoin="round" stroke-width=".755"/>
    <path d="M200.363,481.451c-4.655.043-4.721-9.024-.066-9.067,4.664-.043,4.73,9.024.066,9.067" fill="#85edaf" stroke="#4682b4" stroke-linecap="round" stroke-linejoin="round" stroke-width=".755"/>
    <path d="M211.468,468.775c-5.083.047-5.151-9.258-.068-9.305s5.151,9.258.068,9.305" fill="#85edaf" stroke="#4682b4" stroke-linecap="round" stroke-linejoin="round" stroke-width=".755"/>
    <path d="M226.731,481.261c-4.521.042-4.585-8.758-.064-8.8,4.521-.042,4.585,8.758.064,8.8" fill="#85edaf" stroke="#4682b4" stroke-linecap="round" stroke-linejoin="round" stroke-width=".755"/>
    <path d="M230.875,494.994c-3.683.034-3.739-7.658-.056-7.692s3.739,7.658.056,7.692" fill="#85edaf" stroke="#4682b4" stroke-linecap="round" stroke-linejoin="round" stroke-width=".755"/>
    <path d="M234.725,475.887c-4.969.046-5.029-8.181-.06-8.227s5.019,8.181.06,8.227" fill="#85edaf" stroke="#4682b4" stroke-linecap="round" stroke-linejoin="round" stroke-width=".755"/>
    <path d="M247.01,480.181c-5.159.048-5.22-8.324-.061-8.372s5.22,8.324.061,8.372" fill="#85edaf" stroke="#4682b4" stroke-linecap="round" stroke-linejoin="round" stroke-width=".755"/>
    <path d="M234.845,492.397c-4.969.046-5.029-8.181-.06-8.227,4.959-.046,5.019,8.181.06,8.227" fill="#85edaf" stroke="#4682b4" stroke-linecap="round" stroke-linejoin="round" stroke-width=".755"/>
    <path d="M211.92,495.17c-4.737.044-4.792-7.648-.056-7.692,4.737-.044,4.792,7.648.056,7.692" fill="#85edaf" stroke="#4682b4" stroke-linecap="round" stroke-linejoin="round" stroke-width=".755"/>
    <path d="M241.169,485.661c-5.387.05-5.462-10.245-.075-10.295s5.462,10.245.075,10.295" fill="#85edaf" stroke="#4682b4" stroke-linecap="round" stroke-linejoin="round" stroke-width=".755"/>
    <path d="M234.665,467.627c-4.969.046-5.029-8.181-.06-8.227,4.959-.046,5.019,8.181.06,8.227" fill="#85edaf" stroke="#4682b4" stroke-linecap="round" stroke-linejoin="round" stroke-width=".755"/>
    <path d="M234.906,500.658c-4.969.046-5.029-8.181-.06-8.227,4.959-.046,5.019,8.181.06,8.227" fill="#85edaf" stroke="#4682b4" stroke-linecap="round" stroke-linejoin="round" stroke-width=".755"/>
    <path d="M255.488,480.102c-5.159.048-5.22-8.324-.061-8.372,5.159-.048,5.22,8.324.061,8.372" fill="#85edaf" stroke="#4682b4" stroke-linecap="round" stroke-linejoin="round" stroke-width=".755"/>
    <path d="M234.605,459.366c-4.969.046-5.029-8.169-.06-8.215,4.959-.046,5.019,8.169.06,8.215" fill="#85edaf" stroke="#4682b4" stroke-linecap="round" stroke-linejoin="round" stroke-width=".755"/>
    <path d="M218.029,469c-4.371-.383-3.845-8.053.526-7.669,4.38.384,3.854,8.053-.526,7.669" fill="#85edaf" stroke="#4682b4" stroke-linecap="round" stroke-linejoin="round" stroke-width=".755"/>
    <path d="M223.032,484.124c-4.521.042-4.585-8.746-.064-8.788,4.521-.042,4.585,8.746.064,8.788" fill="#85edaf" stroke="#4682b4" stroke-linecap="round" stroke-linejoin="round" stroke-width=".755"/>
    <path d="M211.4,459.432c-5.083.047-5.151-9.245-.068-9.292s5.151,9.245.068,9.292" fill="#85edaf" stroke="#4682b4" stroke-linecap="round" stroke-linejoin="round" stroke-width=".755"/>
    <path d="M228.655,500.716c-4.707.044-4.767-8.183-.06-8.227s4.767,8.183.06,8.227" fill="#85edaf" stroke="#4682b4" stroke-linecap="round" stroke-linejoin="round" stroke-width=".755"/>
    <path d="M251.213,474.437c-5.159.048-5.22-8.324-.061-8.372s5.22,8.324.061,8.372" fill="#85edaf" stroke="#4682b4" stroke-linecap="round" stroke-linejoin="round" stroke-width=".755"/>
    <path d="M229.91,464.094c-4.536-.11-4.391-7.789.145-7.68s4.391,7.789-.145,7.68" fill="#85edaf" stroke="#4682b4" stroke-linecap="round" stroke-linejoin="round" stroke-width=".755"/>
    <path d="M241.018,464.972c-5.387.05-5.462-10.259-.075-10.309s5.462,10.259.075,10.309" fill="#85edaf" stroke="#4682b4" stroke-linecap="round" stroke-linejoin="round" stroke-width=".755"/>
    <path d="M211.981,503.571c-4.737.044-4.797-8.325-.061-8.369s4.797,8.325.061,8.369" fill="#85edaf" stroke="#4682b4" stroke-linecap="round" stroke-linejoin="round" stroke-width=".755"/>
    <path d="M265.329,479.509c-5.562.052-5.635-9.909-.072-9.96,5.562-.052,5.635,9.909.072,9.96" fill="#85edaf" stroke="#4682b4" stroke-linecap="round" stroke-linejoin="round" stroke-width=".755"/>
    <path d="M241.244,496.013c-5.387.05-5.462-10.259-.075-10.309,5.387-.05,5.462,10.259.075,10.309" fill="#85edaf" stroke="#4682b4" stroke-linecap="round" stroke-linejoin="round" stroke-width=".755"/>
    <path d="M228.354,459.424c-4.707.044-4.767-8.172-.06-8.215,4.707-.044,4.767,8.172.06,8.215" fill="#85edaf" stroke="#4682b4" stroke-linecap="round" stroke-linejoin="round" stroke-width=".755"/>
    <path d="M258.968,570.867c-3.813.035-3.839-3.477-.026-3.513s3.839,3.477.026,3.513" fill="#ffa1e4" stroke="#4682b4" stroke-linecap="round" stroke-linejoin="round" stroke-width=".755"/>
    <path d="M249.555,568.349c-3.813.035-3.862-6.668-.049-6.703,3.813-.035,3.862,6.668.049,6.703" fill="#ffa1e4" stroke="#4682b4" stroke-linecap="round" stroke-linejoin="round" stroke-width=".755"/>
    <path d="M244.515,569.875c-3.821.036-3.875-7.283-.053-7.318,3.813-.035,3.867,7.283.053,7.318" fill="#ffa1e4" stroke="#4682b4" stroke-linecap="round" stroke-linejoin="round" stroke-width=".755"/>
    <path d="M262.09,569.707c-3.813.035-3.863-6.848-.05-6.883s3.863,6.848.05,6.883" fill="#ffa1e4" stroke="#4682b4" stroke-linecap="round" stroke-linejoin="round" stroke-width=".755"/>
    <path d="M234.806,573.239c-4.356.024-4.405-6.711-.049-6.735,4.356-.024,4.405,6.711.049,6.735" fill="#ffa1e4" stroke="#4682b4" stroke-linecap="round" stroke-linejoin="round" stroke-width=".755"/>
    <path d="M234.548,579.444c-3.813.072-3.922-7.215-.108-7.288,3.813-.072,3.922,7.215.108,7.288" fill="#ffa1e4" stroke="#4682b4" stroke-linecap="round" stroke-linejoin="round" stroke-width=".755"/>
    <path d="M262.025,576.362c-3.813.035-3.863-6.751-.049-6.787s3.863,6.751.049,6.787" fill="#ffa1e4" stroke="#4682b4" stroke-linecap="round" stroke-linejoin="round" stroke-width=".755"/>
    <path d="M261.937,564.32c-3.813.035-3.863-6.76-.049-6.796s3.863,6.76.049,6.796" fill="#ffa1e4" stroke="#4682b4" stroke-linecap="round" stroke-linejoin="round" stroke-width=".755"/>
    <path d="M249.604,575.071c-3.813.035-3.862-6.659-.049-6.694s3.862,6.659.049,6.694" fill="#ffa1e4" stroke="#4682b4" stroke-linecap="round" stroke-linejoin="round" stroke-width=".755"/>
    <path d="M266.833,571.76c-4.053.038-4.075-3.084-.023-3.122,4.044-.038,4.067,3.084.023,3.122" fill="#ffa1e4" stroke="#4682b4" stroke-linecap="round" stroke-linejoin="round" stroke-width=".755"/>
    <path d="M278.174,569.023c-4.424.041-4.475-6.997-.051-7.038,4.415-.041,4.466,6.997.051,7.038" fill="#ffa1e4" stroke="#4682b4" stroke-linecap="round" stroke-linejoin="round" stroke-width=".755"/>
    <path d="M235.191,566.322c-4.314.671-5.226-6.554-.912-7.225,4.314-.671,5.226,6.554.912,7.225" fill="#ffa1e4" stroke="#4682b4" stroke-linecap="round" stroke-linejoin="round" stroke-width=".755"/>
    <path d="M244.569,577.213c-3.821.036-3.874-7.273-.053-7.308,3.813-.035,3.867,7.273.053,7.308" fill="#ffa1e4" stroke="#4682b4" stroke-linecap="round" stroke-linejoin="round" stroke-width=".755"/>
    <path d="M267.479,574.919c-4.053.038-4.109-7.732-.056-7.77,4.044-.038,4.101,7.732.056,7.77" fill="#ffa1e4" stroke="#4682b4" stroke-linecap="round" stroke-linejoin="round" stroke-width=".755"/>
    <path d="M271.195,568.518c-4.039.038-4.091-7.096-.052-7.134,4.039-.038,4.091,7.096.052,7.134" fill="#ffa1e4" stroke="#4682b4" stroke-linecap="round" stroke-linejoin="round" stroke-width=".755"/>
    <path d="M266.801,580.121c-5.027.047-5.091-8.805-.064-8.851,5.027-.047,5.091,8.805.064,8.851" fill="#ffa1e4" stroke="#4682b4" stroke-linecap="round" stroke-linejoin="round" stroke-width=".755"/>
    <path d="M241.395,572.256c-3.813.035-3.867-7.273-.053-7.308s3.867,7.273.053,7.308" fill="#ffa1e4" stroke="#4682b4" stroke-linecap="round" stroke-linejoin="round" stroke-width=".755"/>
    <path d="M279.963,565.875c-4.415.041-4.472-7.885-.058-7.926,4.415-.041,4.472,7.885.058,7.926" fill="#ffa1e4" stroke="#4682b4" stroke-linecap="round" stroke-linejoin="round" stroke-width=".755"/>
    <path d="M266.81,568.625c-4.053.038-4.096-5.911-.043-5.949,4.044-.038,4.087,5.911.043,5.949" fill="#ffa1e4" stroke="#4682b4" stroke-linecap="round" stroke-linejoin="round" stroke-width=".755"/>
    <path d="M278.227,576.275c-4.424.041-4.476-7.197-.053-7.238s4.467,7.197.053,7.238" fill="#ffa1e4" stroke="#4682b4" stroke-linecap="round" stroke-linejoin="round" stroke-width=".755"/>
    <path d="M268.954,581.532c-4.78.062-4.839-7.932-.059-7.994,4.77-.062,4.829,7.932.059,7.994" fill="#ffa1e4" stroke="#4682b4" stroke-linecap="round" stroke-linejoin="round" stroke-width=".755"/>
    <path d="M254.564,565.15c-3.813.035-3.866-7.177-.052-7.212,3.813-.035,3.866,7.177.052,7.212" fill="#ffa1e4" stroke="#4682b4" stroke-linecap="round" stroke-linejoin="round" stroke-width=".755"/>
    <path d="M241.342,564.918c-3.813.035-3.867-7.283-.053-7.318,3.813-.035,3.867,7.283.053,7.318" fill="#ffa1e4" stroke="#4682b4" stroke-linecap="round" stroke-linejoin="round" stroke-width=".755"/>
    <path d="M241.449,579.605c-3.813.035-3.867-7.283-.053-7.318,3.813-.035,3.867,7.283.053,7.318" fill="#ffa1e4" stroke="#4682b4" stroke-linecap="round" stroke-linejoin="round" stroke-width=".755"/>
    <path d="M234.657,586.771c-3.813.072-3.922-7.225-.108-7.298s3.922,7.225.108,7.298" fill="#ffa1e4" stroke="#4682b4" stroke-linecap="round" stroke-linejoin="round" stroke-width=".755"/>
    <path d="M258.974,571.637c-3.813.035-3.87-7.779-.057-7.815s3.87,7.779.057,7.815" fill="#ffa1e4" stroke="#4682b4" stroke-linecap="round" stroke-linejoin="round" stroke-width=".755"/>
    <path d="M281.84,575.004c-4.415.041-4.476-8.371-.061-8.412,4.415-.041,4.476,8.371.061,8.412" fill="#ffa1e4" stroke="#4682b4" stroke-linecap="round" stroke-linejoin="round" stroke-width=".755"/>
    <path d="M270.949,574.338c-4.415.041-4.47-7.603-.056-7.644,4.424-.041,4.479,7.603.056,7.644" fill="#ffa1e4" stroke="#4682b4" stroke-linecap="round" stroke-linejoin="round" stroke-width=".755"/>
    <path d="M228.189,574.831c-4.84.045-4.902-8.469-.062-8.514,4.85-.045,4.912,8.469.062,8.514" fill="#ffa1e4" stroke="#4682b4" stroke-linecap="round" stroke-linejoin="round" stroke-width=".755"/>
    <path d="M303.017,570.932c-4.84.045-4.902-8.469-.062-8.514,4.85-.045,4.912,8.469.062,8.514" fill="#ffa1e4" stroke="#4682b4" stroke-linecap="round" stroke-linejoin="round" stroke-width=".755"/>
    <path d="M266.766,562.652c-4.053.038-4.096-5.903-.043-5.94,4.044-.038,4.087,5.903.043,5.94" fill="#ffa1e4" stroke="#4682b4" stroke-linecap="round" stroke-linejoin="round" stroke-width=".755"/>
    <path d="M195.21,374.921c-4.331.04-4.376-6.182-.045-6.222,4.339-.04,4.385,6.181.045,6.222" fill="#d32a2a" stroke="#4682b4" stroke-linecap="round" stroke-linejoin="round" stroke-width=".755"/>
    <path d="M196.151,368.664c-4.331.04-4.376-6.182-.045-6.222,4.339-.04,4.385,6.181.045,6.222" fill="#d32a2a" stroke="#4682b4" stroke-linecap="round" stroke-linejoin="round" stroke-width=".755"/>
    <path d="M190.351,378.832c-3.944.037-3.992-6.607-.048-6.643,3.944-.037,3.992,6.607.048,6.643" fill="#d32a2a" stroke="#4682b4" stroke-linecap="round" stroke-linejoin="round" stroke-width=".755"/>
    <path d="M196.241,381.15c-4.331.04-4.388-7.872-.058-7.913,4.339-.04,4.397,7.872.058,7.913" fill="#d32a2a" stroke="#4682b4" stroke-linecap="round" stroke-linejoin="round" stroke-width=".755"/>
    <path d="M112.562,374.74c-4.726.044-4.783-7.863-.057-7.907s4.783,7.863.057,7.907" fill="#d32a2a" stroke="#4682b4" stroke-linecap="round" stroke-linejoin="round" stroke-width=".755"/>
    <path d="M128.094,374.596c-4.726.044-4.783-7.863-.057-7.907,4.726-.044,4.783,7.863.057,7.907" fill="#d32a2a" stroke="#4682b4" stroke-linecap="round" stroke-linejoin="round" stroke-width=".755"/>
    <path d="M201.713,372.982c-3.068.029-3.086-2.429-.018-2.458s3.086,2.429.018,2.458" fill="#d32a2a" stroke="#4682b4" stroke-linecap="round" stroke-linejoin="round" stroke-width=".755"/>
    <path d="M206.504,376.25c-3.434.032-3.479-6.184-.045-6.216,3.434-.032,3.479,6.184.045,6.216" fill="#d32a2a" stroke="#4682b4" stroke-linecap="round" stroke-linejoin="round" stroke-width=".755"/>
    <path d="M201.695,370.514c-3.068.029-3.086-2.429-.018-2.458s3.086,2.429.018,2.458" fill="#6b171d" stroke="#4682b4" stroke-linecap="round" stroke-linejoin="round" stroke-width=".755"/>
    <path d="M206.737,370.467c-3.068.029-3.104-4.894-.036-4.922,3.068-.029,3.104,4.894.036,4.922" fill="#d32a2a" stroke="#4682b4" stroke-linecap="round" stroke-linejoin="round" stroke-width=".755"/>
    <path d="M201.731,375.446c-3.068.029-3.086-2.426-.018-2.454s3.086,2.426.018,2.454" fill="#d32a2a" stroke="#4682b4" stroke-linecap="round" stroke-linejoin="round" stroke-width=".755"/>
    <path d="M208.017,381.628c-3.981.037-4.031-6.801-.05-6.838s4.031,6.801.05,6.838" fill="#d32a2a" stroke="#4682b4" stroke-linecap="round" stroke-linejoin="round" stroke-width=".755"/>
    <path d="M201.677,368.046c-3.068.029-3.086-2.426-.018-2.454,3.068-.029,3.086,2.426.018,2.454" fill="#d32a2a" stroke="#4682b4" stroke-linecap="round" stroke-linejoin="round" stroke-width=".755"/>
    <path d="M198.838,373.213c-3.539.033-3.586-6.457-.047-6.49s3.586,6.457.047,6.49" fill="#d32a2a" stroke="#4682b4" stroke-linecap="round" stroke-linejoin="round" stroke-width=".755"/>
    <path d="M201.333,383.158c-4.224.039-4.28-7.622-.056-7.661,4.224-.039,4.28,7.622.056,7.661" fill="#d32a2a" stroke="#4682b4" stroke-linecap="round" stroke-linejoin="round" stroke-width=".755"/>
    <path d="M198.878,378.752c-3.539.033-3.586-6.494-.047-6.527s3.586,6.494.047,6.527" fill="#d32a2a" stroke="#4682b4" stroke-linecap="round" stroke-linejoin="round" stroke-width=".755"/>
    <path d="M211.555,372.783c-3.917-.189-3.66-6.987.256-6.798,3.917.189,3.66,6.987-.256,6.798" fill="#d32a2a" stroke="#4682b4" stroke-linecap="round" stroke-linejoin="round" stroke-width=".755"/>
    <path d="M207.922,368.478c-3.981.037-4.033-7.074-.052-7.111,3.981-.037,4.033,7.074.052,7.111" fill="#d32a2a" stroke="#4682b4" stroke-linecap="round" stroke-linejoin="round" stroke-width=".755"/>
    <path d="M190.258,366.138c-3.944.037-3.987-5.981-.044-6.017s3.987,5.981.044,6.017" fill="#d32a2a" stroke="#4682b4" stroke-linecap="round" stroke-linejoin="round" stroke-width=".755"/>
    <path d="M223.303,372.513c-4.895.141-5.101-8.954-.205-9.096s5.101,8.954.205,9.096" fill="#d32a2a" stroke="#4682b4" stroke-linecap="round" stroke-linejoin="round" stroke-width=".755"/>
    <path d="M204.685,373.795c-3.981.037-4.027-6.244-.046-6.281s4.027,6.244.046,6.281" fill="#d32a2a" stroke="#4682b4" stroke-linecap="round" stroke-linejoin="round" stroke-width=".755"/>
    <path d="M157.372,171.579c-5.753.054-5.824-9.717-.071-9.77,5.764-.054,5.835,9.716.071,9.77" fill="#ff981d" stroke="#4682b4" stroke-linecap="round" stroke-linejoin="round" stroke-width=".755"/>
    <path d="M157.443,181.389c-5.753.054-5.824-9.717-.071-9.77,5.764-.054,5.835,9.716.071,9.77" fill="#ff981d" stroke="#4682b4" stroke-linecap="round" stroke-linejoin="round" stroke-width=".755"/>
    <path d="M141.143,201.089c-6.32.059-6.393-9.963-.073-10.022,6.32-.059,6.393,9.963.073,10.022" fill="#ff981d" stroke="#4682b4" stroke-linecap="round" stroke-linejoin="round" stroke-width=".755"/>
    <path d="M145.378,183.111c-4.728.044-4.779-6.975-.051-7.019,4.728-.044,4.779,6.975.051,7.019" fill="#ff981d" stroke="#4682b4" stroke-linecap="round" stroke-linejoin="round" stroke-width=".755"/>
    <path d="M157.281,168.934c-5.219.049-5.278-8.055-.059-8.104,5.23-.049,5.289,8.055.059,8.104" fill="#ff981d" stroke="#4682b4" stroke-linecap="round" stroke-linejoin="round" stroke-width=".755"/>
    <path d="M157.514,191.186c-5.753.054-5.824-9.703-.071-9.757,5.764-.054,5.835,9.703.071,9.757" fill="#ff981d" stroke="#4682b4" stroke-linecap="round" stroke-linejoin="round" stroke-width=".755"/>
    <path d="M145.429,190.159c-4.728.044-4.779-6.975-.051-7.019,4.728-.044,4.779,6.975.051,7.019" fill="#ff981d" stroke="#4682b4" stroke-linecap="round" stroke-linejoin="round" stroke-width=".755"/>
    <path d="M157.222,160.797c-5.219.049-5.278-8.066-.059-8.115,5.23-.049,5.289,8.066.059,8.115" fill="#ff981d" stroke="#4682b4" stroke-linecap="round" stroke-linejoin="round" stroke-width=".755"/>
    <path d="M157.586,200.996c-5.753.054-5.824-9.717-.071-9.77s5.835,9.716.071,9.77" fill="#ff981d" stroke="#4682b4" stroke-linecap="round" stroke-linejoin="round" stroke-width=".755"/>
    <path d="M157.163,152.649c-5.219.049-5.278-8.066-.059-8.115s5.289,8.066.059,8.115" fill="#ff981d" stroke="#4682b4" stroke-linecap="round" stroke-linejoin="round" stroke-width=".755"/>
    <path d="M170.455,181.45c-5.332.05-5.399-9.117-.067-9.167,5.332-.05,5.399,9.117.067,9.167" fill="#ff981d" stroke="#4682b4" stroke-linecap="round" stroke-linejoin="round" stroke-width=".755"/>
    <path d="M149.55,178.037c-5.613.052-5.68-9.233-.067-9.285,5.613-.052,5.68,9.233.067,9.285" fill="#ff981d" stroke="#4682b4" stroke-linecap="round" stroke-linejoin="round" stroke-width=".755"/>
    <path d="M170.522,190.654c-5.332.05-5.399-9.117-.067-9.167s5.399,9.117.067,9.167" fill="#ff981d" stroke="#4682b4" stroke-linecap="round" stroke-linejoin="round" stroke-width=".755"/>
    <path d="M163.924,184.241c-3.473.041-3.514-4.443-.041-4.485,3.473-.041,3.514,4.443.041,4.485" fill="#ff981d" stroke="#4682b4" stroke-linecap="round" stroke-linejoin="round" stroke-width=".755"/>
    <path d="M149.483,168.714c-5.613.052-5.68-9.22-.067-9.272s5.68,9.22.067,9.272" fill="#ff981d" stroke="#4682b4" stroke-linecap="round" stroke-linejoin="round" stroke-width=".755"/>
    <path d="M149.686,196.672c-5.613.052-5.68-9.22-.067-9.272s5.68,9.22.067,9.272" fill="#ff981d" stroke="#4682b4" stroke-linecap="round" stroke-linejoin="round" stroke-width=".755"/>
    <path d="M157.657,210.807c-5.753.054-5.824-9.717-.071-9.77s5.835,9.716.071,9.77" fill="#ff981d" stroke="#4682b4" stroke-linecap="round" stroke-linejoin="round" stroke-width=".755"/>
    <path d="M170.342,166.015c-5.332.05-5.403-9.689-.071-9.738,5.332-.05,5.403,9.689.071,9.738" fill="#ff981d" stroke="#4682b4" stroke-linecap="round" stroke-linejoin="round" stroke-width=".755"/>
    <path d="M163.841,175.235c-3.473.041-3.514-4.437-.041-4.478,3.473-.041,3.514,4.437.041,4.478" fill="#ff981d" stroke="#4682b4" stroke-linecap="round" stroke-linejoin="round" stroke-width=".755"/>
    <path d="M161.108,186.555c-4.767.056-4.852-9.153-.085-9.209,4.767-.056,4.852,9.153.085,9.209" fill="#ff981d" stroke="#4682b4" stroke-linecap="round" stroke-linejoin="round" stroke-width=".755"/>
    <path d="M144.176,182.115c-6.32.059-6.393-9.963-.073-10.022,6.32-.059,6.393,9.963.073,10.022" fill="#ff981d" stroke="#4682b4" stroke-linecap="round" stroke-linejoin="round" stroke-width=".755"/>
    <path d="M163.164,175.486c-4.378.052-4.441-6.798-.063-6.85s4.441,6.798.063,6.85" fill="#ff981d" stroke="#4682b4" stroke-linecap="round" stroke-linejoin="round" stroke-width=".755"/>
    <path d="M166.271,202.44c-5.793.07-5.881-9.654-.088-9.723,5.793-.07,5.881,9.654.088,9.723" fill="#ff981d" stroke="#4682b4" stroke-linecap="round" stroke-linejoin="round" stroke-width=".755"/>
    <path d="M144.363,207.87c-6.32.059-6.393-9.963-.073-10.022,6.32-.059,6.393,9.963.073,10.022" fill="#ff981d" stroke="#4682b4" stroke-linecap="round" stroke-linejoin="round" stroke-width=".755"/>
    <path d="M144.103,172.052c-6.32.059-6.393-9.977-.073-10.035,6.32-.059,6.393,9.977.073,10.035" fill="#ff981d" stroke="#4682b4" stroke-linecap="round" stroke-linejoin="round" stroke-width=".755"/>
    <path d="M161.022,177.318c-4.767.056-4.848-8.726-.081-8.782,4.767-.056,4.848,8.726.081,8.782" fill="#ff981d" stroke="#4682b4" stroke-linecap="round" stroke-linejoin="round" stroke-width=".755"/>
    <path d="M149.415,159.403c-5.613.052-5.68-9.233-.067-9.285,5.613-.052,5.68,9.233.067,9.285" fill="#ff981d" stroke="#4682b4" stroke-linecap="round" stroke-linejoin="round" stroke-width=".755"/>
    <path d="M157.103,144.501c-5.219.049-5.278-8.066-.059-8.115,5.23-.049,5.289,8.066.059,8.115" fill="#ff981d" stroke="#4682b4" stroke-linecap="round" stroke-linejoin="round" stroke-width=".755"/>
    <path d="M141.598,185.428c-1.474.014-1.514-5.482-.04-5.496,3.068-.029,3.108,5.467.04,5.496" fill="#ff981d" stroke="#4682b4" stroke-linecap="round" stroke-linejoin="round" stroke-width=".755"/>
    <path d="M149.754,205.995c-5.613.052-5.68-9.233-.067-9.285s5.68,9.233.067,9.285" fill="#ff981d" stroke="#4682b4" stroke-linecap="round" stroke-linejoin="round" stroke-width=".755"/>
    <path d="M170.588,199.846c-5.332.05-5.399-9.105-.067-9.154,5.332-.05,5.399,9.105.067,9.154" fill="#ff981d" stroke="#4682b4" stroke-linecap="round" stroke-linejoin="round" stroke-width=".755"/>
    <path d="M149.347,150.08c-5.613.052-5.68-9.233-.067-9.285s5.68,9.233.067,9.285" fill="#ff981d" stroke="#4682b4" stroke-linecap="round" stroke-linejoin="round" stroke-width=".755"/>
    <path d="M163.1,168.608c-4.378.052-4.441-6.798-.063-6.85,4.378-.052,4.441,6.798.063,6.85" fill="#ff981d" stroke="#4682b4" stroke-linecap="round" stroke-linejoin="round" stroke-width=".755"/>
    <path d="M157.728,220.617c-5.753.054-5.824-9.717-.071-9.77,5.764-.054,5.835,9.716.071,9.77" fill="#ff981d" stroke="#4682b4" stroke-linecap="round" stroke-linejoin="round" stroke-width=".755"/>
    <path d="M177.579,281.427c-4.617.043-4.665-6.565-.048-6.607s4.656,6.565.048,6.607" fill="#9c40f4" stroke="#4682b4" stroke-linecap="round" stroke-linejoin="round" stroke-width=".755"/>
    <path d="M177.531,274.792c-4.617.043-4.665-6.555-.048-6.598,4.608-.043,4.656,6.556.048,6.598" fill="#9c40f4" stroke="#4682b4" stroke-linecap="round" stroke-linejoin="round" stroke-width=".755"/>
    <path d="M167.793,280.771c-3.64.034-3.674-4.564-.033-4.598,3.64-.034,3.674,4.564.033,4.598" fill="#9c40f4" stroke="#4682b4" stroke-linecap="round" stroke-linejoin="round" stroke-width=".755"/>
    <path d="M177.627,288.062c-4.617.043-4.665-6.565-.048-6.607s4.656,6.565.048,6.607" fill="#9c40f4" stroke="#4682b4" stroke-linecap="round" stroke-linejoin="round" stroke-width=".755"/>
    <path d="M112.244,282.674c-3.068.029-3.107-5.314-.039-5.342s3.113,5.314.039,5.342" fill="#9c24d3" stroke="#4682b4" stroke-linecap="round" stroke-linejoin="round" stroke-width=".755"/>
    <path d="M177.483,268.167c-4.617.043-4.665-6.565-.048-6.607,4.608-.043,4.656,6.565.048,6.607" fill="#9c40f4" stroke="#4682b4" stroke-linecap="round" stroke-linejoin="round" stroke-width=".755"/>
    <path d="M182.861,283.492c-3.068.029-3.107-5.302-.039-5.33,3.068-.029,3.107,5.302.039,5.33" fill="#9c40f4" stroke="#4682b4" stroke-linecap="round" stroke-linejoin="round" stroke-width=".755"/>
    <path d="M189.198,279.261c-4.836.045-4.894-7.961-.058-8.006,4.836-.045,4.894,7.961.058,8.006" fill="#9c40f4" stroke="#4682b4" stroke-linecap="round" stroke-linejoin="round" stroke-width=".755"/>
    <path d="M183.909,280.75c-3.499.033-3.546-6.442-.047-6.475,3.499-.033,3.546,6.442.047,6.475" fill="#9c40f4" stroke="#4682b4" stroke-linecap="round" stroke-linejoin="round" stroke-width=".755"/>
    <path d="M177.675,294.696c-4.617.043-4.665-6.565-.048-6.607,4.608-.043,4.656,6.565.048,6.607" fill="#9c40f4" stroke="#4682b4" stroke-linecap="round" stroke-linejoin="round" stroke-width=".755"/>
    <path d="M189.257,287.311c-4.836.045-4.894-7.972-.058-8.017s4.894,7.972.058,8.017" fill="#9c40f4" stroke="#4682b4" stroke-linecap="round" stroke-linejoin="round" stroke-width=".755"/>
    <path d="M171.755,283.595c-4.41.041-4.463-7.172-.052-7.213,4.41-.041,4.463,7.172.052,7.213" fill="#9c40f4" stroke="#4682b4" stroke-linecap="round" stroke-linejoin="round" stroke-width=".755"/>
    <path d="M178.079,303.107c-4.16.039-4.221-8.348-.061-8.386,4.151-.039,4.212,8.348.061,8.386" fill="#9c40f4" stroke="#4682b4" stroke-linecap="round" stroke-linejoin="round" stroke-width=".755"/>
    <path d="M171.785,287.72c-4.41.041-4.465-7.445-.054-7.486s4.465,7.445.054,7.486" fill="#9c40f4" stroke="#4682b4" stroke-linecap="round" stroke-linejoin="round" stroke-width=".755"/>
    <path d="M183.467,288.648c-3.762.035-3.81-6.6-.048-6.635s3.81,6.6.048,6.635" fill="#9c40f4" stroke="#4682b4" stroke-linecap="round" stroke-linejoin="round" stroke-width=".755"/>
    <path d="M188.91,271.226c-4.529.042-4.587-7.998-.058-8.04s4.587,7.998.058,8.04" fill="#9c40f4" stroke="#4682b4" stroke-linecap="round" stroke-linejoin="round" stroke-width=".755"/>
    <path d="M183.75,276.323c-3.669.034-3.717-6.642-.049-6.676s3.717,6.642.049,6.676" fill="#9c40f4" stroke="#4682b4" stroke-linecap="round" stroke-linejoin="round" stroke-width=".755"/>
    <path d="M195.907,285.369c-4.432-1.128-2.978-9.188,1.455-8.061,4.432,1.128,2.978,9.188-1.455,8.061" fill="#9c40f4" stroke="#4682b4" stroke-linecap="round" stroke-linejoin="round" stroke-width=".755"/>
    <path d="M172.1,301.402c-4.41.041-4.468-7.83-.057-7.871s4.468,7.83.057,7.871" fill="#9c40f4" stroke="#4682b4" stroke-linecap="round" stroke-linejoin="round" stroke-width=".755"/>
    <path d="M183.595,271.953c-3.833.036-3.884-6.9-.05-6.936,3.833-.036,3.884,6.9.05,6.936" fill="#9c40f4" stroke="#4682b4" stroke-linecap="round" stroke-linejoin="round" stroke-width=".755"/>
    <path d="M201.996,285.695c-5.025.046-5.092-9.151-.067-9.197,5.025-.046,5.092,9.151.067,9.197" fill="#9c40f4" stroke="#4682b4" stroke-linecap="round" stroke-linejoin="round" stroke-width=".755"/>
    <path d="M171.702,276.359c-4.41.041-4.451-5.62-.041-5.661,4.41-.041,4.451,5.62.041,5.661" fill="#9c40f4" stroke="#4682b4" stroke-linecap="round" stroke-linejoin="round" stroke-width=".755"/>
    <path d="M189.315,295.361c-4.836.045-4.894-7.972-.058-8.017s4.894,7.972.058,8.017" fill="#9c40f4" stroke="#4682b4" stroke-linecap="round" stroke-linejoin="round" stroke-width=".755"/>
    <path d="M193.861,279.723c-4.326.04-4.383-7.831-.057-7.871s4.383,7.831.057,7.871" fill="#9c40f4" stroke="#4682b4" stroke-linecap="round" stroke-linejoin="round" stroke-width=".755"/>
    <path d="M183.389,265c-4.04.038-4.085-6.263-.046-6.301s4.085,6.263.046,6.301" fill="#9c40f4" stroke="#4682b4" stroke-linecap="round" stroke-linejoin="round" stroke-width=".755"/>
    <path d="M141.54,173.699c-5.389.05-5.462-10.04-.073-10.09,5.389-.05,5.462,10.04.073,10.09" fill="#ff981d" stroke="#4682b4" stroke-linecap="round" stroke-linejoin="round" stroke-width=".755"/>
    <path d="M141.596,181.507c-5.389.05-5.462-10.04-.073-10.09,5.389-.05,5.462,10.04.073,10.09" fill="#ff981d" stroke="#4682b4" stroke-linecap="round" stroke-linejoin="round" stroke-width=".755"/>
    <path d="M140.667,189.324c-5.389.05-5.462-10.04-.073-10.09,5.389-.05,5.462,10.04.073,10.09" fill="#ff981d" stroke="#4682b4" stroke-linecap="round" stroke-linejoin="round" stroke-width=".755"/>
    <path d="M182.022,181.131c-5.389.05-5.462-10.04-.073-10.09,5.389-.05,5.462,10.04.073,10.09" fill="#ff981d" stroke="#4682b4" stroke-linecap="round" stroke-linejoin="round" stroke-width=".755"/>
    <path d="M175.597,181.294c-5.389.05-5.462-10.04-.073-10.09,5.389-.05,5.462,10.04.073,10.09" fill="#ff981d" stroke="#4682b4" stroke-linecap="round" stroke-linejoin="round" stroke-width=".755"/>
    <path d="M170.618,174.647c-5.389.05-5.462-10.04-.073-10.09s5.462,10.04.073,10.09" fill="#ff981d" stroke="#4682b4" stroke-linecap="round" stroke-linejoin="round" stroke-width=".755"/>
    <path d="M150.054,186.542c-5.613.052-5.68-9.233-.067-9.285,5.613-.052,5.68,9.233.067,9.285" fill="#ff981d" stroke="#4682b4" stroke-linecap="round" stroke-linejoin="round" stroke-width=".755"/>
    <path d="M163.558,181.715c-5.389.05-5.462-10.04-.073-10.09,5.389-.05,5.462,10.04.073,10.09" fill="#ff981d" stroke="#4682b4" stroke-linecap="round" stroke-linejoin="round" stroke-width=".755"/>
    <path d="M164.679,193.212c-5.389.05-5.462-10.04-.073-10.09s5.462,10.04.073,10.09" fill="#ff981d" stroke="#4682b4" stroke-linecap="round" stroke-linejoin="round" stroke-width=".755"/>
    <path d="M156.479,481.25c-5.409-.581-4.602-10.204.807-9.624,5.409.581,4.602,10.204-.807,9.624" fill="#85edaf" stroke="#4682b4" stroke-linecap="round" stroke-linejoin="round" stroke-width=".755"/>
    <path d="M205.943,483.661c-4.63.043-4.696-9.038-.066-9.081s4.686,9.038.066,9.081" fill="#85edaf" stroke="#4682b4" stroke-linecap="round" stroke-linejoin="round" stroke-width=".755"/>
    <path d="M147.906,481.432c-5.409-.581-4.602-10.204.807-9.624,5.409.581,4.602,10.204-.807,9.624" fill="#85edaf" stroke="#4682b4" stroke-linecap="round" stroke-linejoin="round" stroke-width=".755"/>
    <path d="M223.528,381.14c-4.895.141-5.101-8.954-.205-9.096s5.101,8.954.205,9.096" fill="#d32a2a" stroke="#4682b4" stroke-linecap="round" stroke-linejoin="round" stroke-width=".755"/>
    <path d="M185.697,382.383c-4.895.141-5.101-8.954-.205-9.096s5.101,8.954.205,9.096" fill="#d32a2a" stroke="#4682b4" stroke-linecap="round" stroke-linejoin="round" stroke-width=".755"/>
    <path d="M185.648,375.691c-4.895.141-5.101-8.954-.205-9.096,4.895-.141,5.101,8.954.205,9.096" fill="#d32a2a" stroke="#4682b4" stroke-linecap="round" stroke-linejoin="round" stroke-width=".755"/>
    <path d="M185.607,370.113c-4.895.141-5.101-8.954-.205-9.096s5.101,8.954.205,9.096" fill="#d32a2a" stroke="#4682b4" stroke-linecap="round" stroke-linejoin="round" stroke-width=".755"/>
    <path d="M185.559,363.421c-4.895.141-5.101-8.954-.205-9.096,4.895-.141,5.101,8.954.205,9.096" fill="#d32a2a" stroke="#4682b4" stroke-linecap="round" stroke-linejoin="round" stroke-width=".755"/>
    <path d="M178.754,376.87c-4.895.141-5.101-8.954-.205-9.096s5.101,8.954.205,9.096" fill="#d32a2a" stroke="#4682b4" stroke-linecap="round" stroke-linejoin="round" stroke-width=".755"/>
    <path d="M196.394,396.443c-4.895.141-5.101-8.954-.205-9.096s5.101,8.954.205,9.096" fill="#d32a2a" stroke="#4682b4" stroke-linecap="round" stroke-linejoin="round" stroke-width=".755"/>
    <path d="M196.435,402.02c-4.895.141-5.101-8.954-.205-9.096,4.895-.141,5.101,8.954.205,9.096" fill="#d32a2a" stroke="#4682b4" stroke-linecap="round" stroke-linejoin="round" stroke-width=".755"/>
    <path d="M195.517,364.552c-4.895.141-5.101-8.954-.205-9.096,4.895-.141,5.101,8.954.205,9.096" fill="#d32a2a" stroke="#4682b4" stroke-linecap="round" stroke-linejoin="round" stroke-width=".755"/>
    <path d="M195.477,358.975c-4.895.141-5.101-8.954-.205-9.096s5.101,8.954.205,9.096" fill="#d32a2a" stroke="#4682b4" stroke-linecap="round" stroke-linejoin="round" stroke-width=".755"/>
    <path d="M196.422,353.389c-4.895.141-5.101-8.954-.205-9.096s5.101,8.954.205,9.096" fill="#d32a2a" stroke="#4682b4" stroke-linecap="round" stroke-linejoin="round" stroke-width=".755"/>
    <path d="M201.465,368.959c-4.895.141-5.101-8.954-.205-9.096,4.895-.141,5.101,8.954.205,9.096" fill="#d32a2a" stroke="#4682b4" stroke-linecap="round" stroke-linejoin="round" stroke-width=".755"/>
    <path d="M189.882,373.961c-4.895.141-5.101-8.954-.205-9.096,4.895-.141,5.101,8.954.205,9.096" fill="#d32a2a" stroke="#4682b4" stroke-linecap="round" stroke-linejoin="round" stroke-width=".755"/>
    <path d="M202.322,390.698c-4.895.141-5.101-8.954-.205-9.096,4.895-.141,5.101,8.954.205,9.096" fill="#d32a2a" stroke="#4682b4" stroke-linecap="round" stroke-linejoin="round" stroke-width=".755"/>
    <path d="M183.138,294.215c-4.016-1.156-2.571-8.104,1.446-6.948s2.571,8.104-1.446,6.948" fill="#9c40f4" stroke="#4682b4" stroke-linecap="round" stroke-linejoin="round" stroke-width=".755"/>
    <path d="M182.824,298.935c-4.016-1.156-2.571-8.104,1.446-6.948,4.016,1.156,2.571,8.104-1.446,6.948" fill="#9c40f4" stroke="#4682b4" stroke-linecap="round" stroke-linejoin="round" stroke-width=".755"/>
    <path d="M179.902,288.683c-5.025.046-5.092-9.151-.067-9.197,5.025-.046,5.092,9.151.067,9.197" fill="#9c40f4" stroke="#4682b4" stroke-linecap="round" stroke-linejoin="round" stroke-width=".755"/>
    <path d="M179.837,279.76c-5.025.046-5.092-9.151-.067-9.197,5.025-.046,5.092,9.151.067,9.197" fill="#9c40f4" stroke="#4682b4" stroke-linecap="round" stroke-linejoin="round" stroke-width=".755"/>
    <path d="M177.743,263.047c-5.025.046-5.092-9.151-.067-9.197s5.092,9.151.067,9.197" fill="#9c40f4" stroke="#4682b4" stroke-linecap="round" stroke-linejoin="round" stroke-width=".755"/>
    <path d="M177.695,256.354c-5.025.046-5.092-9.151-.067-9.197,5.025-.046,5.092,9.151.067,9.197" fill="#9c40f4" stroke="#4682b4" stroke-linecap="round" stroke-linejoin="round" stroke-width=".755"/>
    <path d="M171.826,295.248c-4.41.041-4.466-7.63-.056-7.671,4.41-.041,4.466,7.63.056,7.671" fill="#9c40f4" stroke="#4682b4" stroke-linecap="round" stroke-linejoin="round" stroke-width=".755"/>
    <path d="M160.511,284.183c-5.025.046-5.092-9.151-.067-9.197,5.025-.046,5.092,9.151.067,9.197" fill="#9c40f4" stroke="#4682b4" stroke-linecap="round" stroke-linejoin="round" stroke-width=".755"/>
    <path d="M165.4,278.56c-5.025.046-5.092-9.151-.067-9.197s5.092,9.151.067,9.197" fill="#9c40f4" stroke="#4682b4" stroke-linecap="round" stroke-linejoin="round" stroke-width=".755"/>
    <path d="M156.567,284.22c-5.025.046-5.092-9.151-.067-9.197s5.092,9.151.067,9.197" fill="#9c40f4" stroke="#4682b4" stroke-linecap="round" stroke-linejoin="round" stroke-width=".755"/>
    <path d="M165.465,287.484c-5.025.046-5.092-9.151-.067-9.197,5.025-.046,5.092,9.151.067,9.197" fill="#9c40f4" stroke="#4682b4" stroke-linecap="round" stroke-linejoin="round" stroke-width=".755"/>
    <path d="M165.506,293.061c-5.025.046-5.092-9.151-.067-9.197s5.092,9.151.067,9.197" fill="#9c40f4" stroke="#4682b4" stroke-linecap="round" stroke-linejoin="round" stroke-width=".755"/>
    <path d="M172.167,272.421c-5.025.046-5.092-9.151-.067-9.197,5.025-.046,5.092,9.151.067,9.197" fill="#9c40f4" stroke="#4682b4" stroke-linecap="round" stroke-linejoin="round" stroke-width=".755"/>
    <path d="M177.524,310.437c-5.025.046-5.092-9.151-.067-9.197,5.025-.046,5.092,9.151.067,9.197" fill="#9c40f4" stroke="#4682b4" stroke-linecap="round" stroke-linejoin="round" stroke-width=".755"/>
    <path d="M111.842,285.025c-5.025.046-5.092-9.151-.067-9.197s5.092,9.151.067,9.197" fill="#9c40f4" stroke="#4682b4" stroke-linecap="round" stroke-linejoin="round" stroke-width=".755"/>
    <path d="M102.968,285.108c-5.025.046-5.092-9.151-.067-9.197s5.092,9.151.067,9.197" fill="#9c40f4" stroke="#4682b4" stroke-linecap="round" stroke-linejoin="round" stroke-width=".755"/>
    <path d="M177.836,250.48c-5.025.046-5.092-9.151-.067-9.197,5.025-.046,5.092,9.151.067,9.197" fill="#9c40f4" stroke="#4682b4" stroke-linecap="round" stroke-linejoin="round" stroke-width=".755"/>
    <path d="M95.697,190.557c-5.389.05-5.462-10.04-.073-10.09,5.389-.05,5.462,10.04.073,10.09" fill="#ff981d" stroke="#4682b4" stroke-linecap="round" stroke-linejoin="round" stroke-width=".755"/>
    <path d="M241.007,560.33c-4.84.045-4.902-8.469-.062-8.514,4.85-.045,4.912,8.469.062,8.514" fill="#ffa1e4" stroke="#4682b4" stroke-linecap="round" stroke-linejoin="round" stroke-width=".755"/>
    <path d="M262.122,556.791c-4.84.045-4.902-8.469-.062-8.514,4.85-.045,4.912,8.469.062,8.514" fill="#ffa1e4" stroke="#4682b4" stroke-linecap="round" stroke-linejoin="round" stroke-width=".755"/>
    <path d="M254.264,572.639c-4.84.045-4.902-8.469-.062-8.514,4.85-.045,4.912,8.469.062,8.514" fill="#ffa1e4" stroke="#4682b4" stroke-linecap="round" stroke-linejoin="round" stroke-width=".755"/>
    <path d="M254.264,578.217c-4.84.045-4.902-8.469-.062-8.514,4.85-.045,4.912,8.469.062,8.514" fill="#ffa1e4" stroke="#4682b4" stroke-linecap="round" stroke-linejoin="round" stroke-width=".755"/>
    <text/>
    <path d="M262.911,584.809c-4.84.045-4.902-8.469-.062-8.514,4.85-.045,4.912,8.469.062,8.514" fill="#ffa1e4" stroke="#4682b4" stroke-linecap="round" stroke-linejoin="round" stroke-width=".755"/>
    <path d="M270.664,289.033c0,45.464-17.53,79.349-38.707,75.839" fill="none" stroke="#000" stroke-miterlimit="10" stroke-width=".382"/>
    <path d="M110.831,376.815c-32.663,90.526-38.459,180.936-12.418,202.59" fill="none" stroke="#000" stroke-miterlimit="10" stroke-width=".388"/>
    <path d="M275.892,567.993c-4.415.041-4.472-7.885-.058-7.926,4.415-.041,4.472,7.885.058,7.926" fill="#ffa1e4" stroke="#4682b4" stroke-linecap="round" stroke-linejoin="round" stroke-width=".755"/>
    <path d="M274.892,571.993c-4.415.041-4.472-7.885-.058-7.926,4.415-.041,4.472,7.885.058,7.926" fill="#ffa1e4" stroke="#4682b4" stroke-linecap="round" stroke-linejoin="round" stroke-width=".755"/>
    <path d="M276.892,577.993c-4.415.041-4.472-7.885-.058-7.926,4.415-.041,4.472,7.885.058,7.926" fill="#ffa1e4" stroke="#4682b4" stroke-linecap="round" stroke-linejoin="round" stroke-width=".755"/>
    <path d="M259.892,566.993c-4.415.041-4.472-7.885-.058-7.926,4.415-.041,4.472,7.885.058,7.926" fill="#ffa1e4" stroke="#4682b4" stroke-linecap="round" stroke-linejoin="round" stroke-width=".755"/>
    <path d="M259.892,578.993c-4.415.041-4.472-7.885-.058-7.926,4.415-.041,4.472,7.885.058,7.926" fill="#ffa1e4" stroke="#4682b4" stroke-linecap="round" stroke-linejoin="round" stroke-width=".755"/>
    <path d="M237.892,567.993c-4.415.041-4.472-7.885-.058-7.926,4.415-.041,4.472,7.885.058,7.926" fill="#ffa1e4" stroke="#4682b4" stroke-linecap="round" stroke-linejoin="round" stroke-width=".755"/>
    <path d="M238.892,574.993c-4.415.041-4.472-7.885-.058-7.926,4.415-.041,4.472,7.885.058,7.926" fill="#ffa1e4" stroke="#4682b4" stroke-linecap="round" stroke-linejoin="round" stroke-width=".755"/>
    <path d="M238.892,581.993c-4.415.041-4.472-7.885-.058-7.926,4.415-.041,4.472,7.885.058,7.926" fill="#ffa1e4" stroke="#4682b4" stroke-linecap="round" stroke-linejoin="round" stroke-width=".755"/>
    <path d="M222.424,574.244c-35.724,26.957-78.005,38.799-94.885,26.216" fill="none" stroke="#000" stroke-miterlimit="10" stroke-width=".213"/>
    <path d="M329,532.4c0,21.865-6.289,37.511-14,35" fill="none"/>
    <path d="M334,522.4c0,28.176-10.962,47.418-24.334,43.08" fill="none" stroke="#000" stroke-miterlimit="10" stroke-width=".225"/>
  </g>
  <polygon points="312.085 472.369 312.08 471.829 79.228 473.995 79.232 474.629 79.237 475.132 312.089 472.966 312.085 472.369" fill="#ebebeb"/>
  <polygon points="176.153 129.649 175.943 129.651 175.585 129.654 179.122 616.199 179.23 616.198 179.69 616.194 176.153 129.649" fill="#ebebeb"/>
  <polygon points="220.424 136.66 220.038 136.663 219.855 136.664 223.392 623.209 223.727 623.207 223.96 623.204 220.424 136.66" fill="#ebebeb"/>
  <polygon points="265.565 137.686 265.271 137.688 264.997 137.691 268.534 624.235 268.743 624.234 269.103 624.231 265.565 137.686" fill="#ebebeb"/>
  <polygon points="243.526 138.244 242.921 138.248 242.39 138.253 245.915 623.329 246.599 623.324 247.052 623.32 243.526 138.244" fill="#ebebeb"/>
  <polygon points="198.18 139.781 197.674 139.784 197.043 139.79 200.568 624.867 200.961 624.864 201.705 624.858 198.18 139.781" fill="#ebebeb"/>
  <polygon points="148.629 144.238 148.075 144.242 147.492 144.247 151.019 629.323 151.763 629.318 152.155 629.314 148.629 144.238" fill="#ebebeb"/>
  <polygon points="328.69 371.972 328.684 371.252 95.495 373.422 95.499 374.056 95.504 374.559 328.693 372.389 328.69 371.972" fill="#ebebeb"/>
  <polygon points="291.755 136.976 291.134 136.98 290.618 136.985 294.144 622.061 294.627 622.058 295.28 622.052 291.755 136.976" fill="#ebebeb"/>
  <polygon points="314.877 566.847 314.872 566.314 79.306 568.506 79.309 568.968 79.315 569.643 314.881 567.451 314.877 566.847" fill="#ebebeb"/>
  <polygon points="318.931 181.733 318.923 180.826 81.385 183.036 81.389 183.614 81.395 184.173 318.932 181.963 318.931 181.733" fill="#ebebeb"/>
  <polygon points="311.014 277.613 311.011 277.255 77.213 279.43 77.216 279.918 77.222 280.567 311.02 278.392 311.014 277.613" fill="#ebebeb"/>
  <polygon points="95.237 142.885 94.707 142.888 94.101 142.894 97.626 627.971 98.209 627.967 98.763 627.962 95.237 142.885" fill="#ebebeb"/>
  <polygon points="120.107 141.622 119.787 141.624 119.539 141.626 123.076 628.171 123.259 628.17 123.645 628.166 120.107 141.622" fill="#ebebeb"/>
<style>
#g-template_all_annotations-mobile-interactions-img rect, #g-template_all_annotations-mobile-interactions-img circle, #g-template_all_annotations-mobile-interactions-img path, #g-template_all_annotations-mobile-interactions-img line, #g-template_all_annotations-mobile-interactions-img polyline { vector-effect: non-scaling-stroke; }
</style>
</svg>
