<?xml version="1.0" encoding="UTF-8"?>
<svg id="g-template_all_annotations-medium-interactions-img" xmlns="http://www.w3.org/2000/svg" baseProfile="tiny" version="1.2" viewBox="0 0 490 359">
  <!-- Generator: Adobe Illustrator 29.3.1, SVG Export Plug-In . SVG Version: 2.1.0 Build 151)  -->
  <rect x="1.5" y=".257" width="488.5" height="358.743" fill="#fffcf5"/>
  <rect x="53.375" y="131.266" width="412.75" height=".533" fill="#ebebeb"/>
  <rect x="50.786" y="233.485" width="412.751" height=".533" fill="#ebebeb"/>
  <rect x="335.942" y="83.408" width="1.066" height="234.178" fill="#ebebeb"/>
  <rect x="50.587" y="280.097" width="412.751" height=".533" fill="#ebebeb"/>
  <rect x="54.373" y="110.284" width="411.506" height="1.067" fill="#ebebeb"/>
  <rect x="53.426" y="158.872" width="411.506" height="1.067" fill="#ebebeb"/>
  <rect x="52.084" y="208.733" width="411.506" height="1.066" fill="#ebebeb"/>
  <path d="M255.069,190.553c.081,4.924-7.636,5.064-7.717.14s7.636-5.064,7.717-.14" fill="#ff3145" stroke="#4682b4" stroke-linecap="round" stroke-linejoin="round" stroke-width=".709"/>
  <path d="M262.342,214.561c.081,4.924-7.636,5.064-7.717.14-.081-4.924,7.636-5.064,7.717-.14" fill="#ff3145" stroke="#4682b4" stroke-linecap="round" stroke-linejoin="round" stroke-width=".709"/>
  <path d="M254.005,213.023c.081,4.924-7.636,5.064-7.717.14s7.636-5.064,7.717-.14" fill="#d32a2a" stroke="#4682b4" stroke-linecap="round" stroke-linejoin="round" stroke-width=".709"/>
  <path d="M264.414,209.056c.081,4.924-7.636,5.064-7.717.14s7.636-5.064,7.717-.14" fill="#ff2439" stroke="#4682b4" stroke-linecap="round" stroke-linejoin="round" stroke-width=".709"/>
  <path d="M264.887,219.792c.081,4.924-7.636,5.064-7.717.14s7.636-5.064,7.717-.14" fill="#ff3145" stroke="#4682b4" stroke-linecap="round" stroke-linejoin="round" stroke-width=".709"/>
  <rect x="249.024" y="85.053" width="1.066" height="234.517" fill="#ebebeb"/>
  <path d="M243.406,204.388c0,4.004-6.033,4.004-6.033,0s6.033-4.004,6.033,0" fill="#ff2439" stroke="#4682b4" stroke-linecap="round" stroke-linejoin="round" stroke-width=".709"/>
  <path d="M349.415,187.743c0,4.547-7.455,4.547-7.455,0s7.455-4.547,7.455,0" fill="#ff647a" stroke="#4682b4" stroke-linecap="round" stroke-linejoin="round" stroke-width=".709"/>
  <path d="M254.746,186.423c.076,4.577-6.865,4.703-6.941.126-.076-4.577,6.865-4.703,6.941-.126" fill="#ff3145" stroke="#4682b4" stroke-linecap="round" stroke-linejoin="round" stroke-width=".709"/>
  <path d="M345.824,177.43c0,4.734-6.969,4.734-6.969,0s6.969-4.734,6.969,0" fill="#ff647a" stroke="#4682b4" stroke-linecap="round" stroke-linejoin="round" stroke-width=".709"/>
  <path d="M340.535,194.48c0,5.112-7.894,5.112-7.894,0s7.894-5.112,7.894,0" fill="#ff647a" stroke="#4682b4" stroke-linecap="round" stroke-linejoin="round" stroke-width=".709"/>
  <path d="M348.45,194.48c0,5.112-7.883,5.112-7.883,0s7.883-5.112,7.883,0" fill="#ff647a" stroke="#4682b4" stroke-linecap="round" stroke-linejoin="round" stroke-width=".709"/>
  <path d="M341.907,175.155c0,3.704-6.525,3.704-6.525,0s6.525-3.704,6.525,0" fill="#ff647a" stroke="#4682b4" stroke-linecap="round" stroke-linejoin="round" stroke-width=".709"/>
  <path d="M343.085,260.315" fill="#d32a2a" stroke="#4682b4" stroke-linecap="round" stroke-linejoin="round" stroke-width=".709"/>
  <path d="M334.636,260.315" fill="#d32a2a" stroke="#4682b4" stroke-linecap="round" stroke-linejoin="round" stroke-width=".709"/>
  <path d="M343.085,260.315" fill="#d32a2a" stroke="#4682b4" stroke-linecap="round" stroke-linejoin="round" stroke-width=".709"/>
  <path d="M338.825,177.43c0,4.734-6.979,4.734-6.979,0s6.979-4.734,6.979,0" fill="#ff647a" stroke="#4682b4" stroke-linecap="round" stroke-linejoin="round" stroke-width=".709"/>
  <path d="M345.824,171.144c0,4.997-6.969,4.997-6.969,0s6.969-4.987,6.969,0" fill="#ff647a" stroke="#4682b4" stroke-linecap="round" stroke-linejoin="round" stroke-width=".709"/>
  <path d="M338.397,164.735c0,5.418-8.746,5.418-8.746,0s8.746-5.418,8.746,0" fill="#ff647a" stroke="#4682b4" stroke-linecap="round" stroke-linejoin="round" stroke-width=".709"/>
  <path d="M344.847,154.553c0,5.188-7.092,5.188-7.092,0s7.092-5.188,7.092,0" fill="#ff647a" stroke="#4682b4" stroke-linecap="round" stroke-linejoin="round" stroke-width=".709"/>
  <path d="M342.139,131.202c0,5.594-8.45,5.594-8.45,0s8.45-5.594,8.45,0" fill="#ff647a" stroke="#4682b4" stroke-linecap="round" stroke-linejoin="round" stroke-width=".709"/>
  <path d="M352.831,177.43c0,4.734-6.979,4.734-6.979,0s6.979-4.734,6.979,0" fill="#ff647a" stroke="#4682b4" stroke-linecap="round" stroke-linejoin="round" stroke-width=".709"/>
  <path d="M348.45,175.155c0,3.704-6.516,3.704-6.516,0s6.516-3.704,6.516,0" fill="#ff647a" stroke="#4682b4" stroke-linecap="round" stroke-linejoin="round" stroke-width=".709"/>
  <path d="M331.818,177.43c0,4.734-6.979,4.734-6.979,0s6.979-4.734,6.979,0" fill="#ff647a" stroke="#4682b4" stroke-linecap="round" stroke-linejoin="round" stroke-width=".709"/>
  <path d="M335.355,175.155c0,3.704-6.525,3.704-6.525,0s6.525-3.704,6.525,0" fill="#ff647a" stroke="#4682b4" stroke-linecap="round" stroke-linejoin="round" stroke-width=".709"/>
  <path d="M343.274,205.74c0,4.681-7.692,4.681-7.692,0s7.692-4.691,7.692,0" fill="#ff647a" stroke="#4682b4" stroke-linecap="round" stroke-linejoin="round" stroke-width=".709"/>
  <path d="M332.609,194.48c0,5.112-7.894,5.112-7.894,0s7.894-5.112,7.894,0" fill="#ff647a" stroke="#4682b4" stroke-linecap="round" stroke-linejoin="round" stroke-width=".709"/>
  <path d="M343.321,179.223c0,4.547-7.465,4.547-7.465,0s7.465-4.547,7.465,0" fill="#ff647a" stroke="#4682b4" stroke-linecap="round" stroke-linejoin="round" stroke-width=".709"/>
  <path d="M355.003,175.155c0,3.704-6.525,3.704-6.525,0s6.525-3.704,6.525,0" fill="#ff647a" stroke="#4682b4" stroke-linecap="round" stroke-linejoin="round" stroke-width=".709"/>
  <path d="M338.825,171.144c0,4.997-6.979,4.997-6.979,0s6.979-4.987,6.979,0" fill="#ff647a" stroke="#4682b4" stroke-linecap="round" stroke-linejoin="round" stroke-width=".709"/>
  <path d="M342.564,158.821c0,5.188-7.102,5.188-7.102,0s7.102-5.188,7.102,0" fill="#ff647a" stroke="#4682b4" stroke-linecap="round" stroke-linejoin="round" stroke-width=".709"/>
  <path d="M352.831,171.144c0,4.997-6.979,4.997-6.979,0s6.979-4.987,6.979,0" fill="#ff647a" stroke="#4682b4" stroke-linecap="round" stroke-linejoin="round" stroke-width=".709"/>
  <path d="M355.003,194.218c0,4.763-6.525,4.763-6.525,0s6.525-4.763,6.525,0" fill="#ff647a" stroke="#4682b4" stroke-linecap="round" stroke-linejoin="round" stroke-width=".709"/>
  <path d="M347.167,164.735c0,5.418-8.734,5.418-8.734,0s8.734-5.418,8.734,0" fill="#ff647a" stroke="#4682b4" stroke-linecap="round" stroke-linejoin="round" stroke-width=".709"/>
  <path d="M331.818,171.144c0,4.997-6.979,4.997-6.979,0s6.979-4.987,6.979,0" fill="#ff647a" stroke="#4682b4" stroke-linecap="round" stroke-linejoin="round" stroke-width=".709"/>
  <path d="M359.839,171.144c0,4.997-6.979,4.997-6.979,0,0-4.987,6.979-4.987,6.979,0" fill="#ff647a" stroke="#4682b4" stroke-linecap="round" stroke-linejoin="round" stroke-width=".709"/>
  <path d="M342.564,150.295c0,5.188-7.102,5.188-7.102,0s7.102-5.188,7.102,0" fill="#ff647a" stroke="#4682b4" stroke-linecap="round" stroke-linejoin="round" stroke-width=".709"/>
  <path d="M324.81,171.144c0,4.997-6.969,4.997-6.969,0s6.969-4.987,6.969,0" fill="#ff647a" stroke="#4682b4" stroke-linecap="round" stroke-linejoin="round" stroke-width=".709"/>
  <path d="M332.852,187.883c-.36,4.393-6.861,3.808-6.501-.585s6.862-3.817,6.501.585" fill="#ff647a" stroke="#4682b4" stroke-linecap="round" stroke-linejoin="round" stroke-width=".709"/>
  <path d="M324.683,194.48c0,5.112-7.883,5.112-7.883,0s7.883-5.112,7.883,0" fill="#ff647a" stroke="#4682b4" stroke-linecap="round" stroke-linejoin="round" stroke-width=".709"/>
  <path d="M359.839,177.43c0,4.734-6.979,4.734-6.979,0s6.979-4.734,6.979,0" fill="#ff647a" stroke="#4682b4" stroke-linecap="round" stroke-linejoin="round" stroke-width=".709"/>
  <path d="M337.726,154.553c0,5.188-7.102,5.188-7.102,0s7.102-5.188,7.102,0" fill="#ff647a" stroke="#4682b4" stroke-linecap="round" stroke-linejoin="round" stroke-width=".709"/>
  <path d="M328.783,175.9c-.129,4.561-6.642,4.359-6.513-.202s6.642-4.359,6.513.202" fill="#ff647a" stroke="#4682b4" stroke-linecap="round" stroke-linejoin="round" stroke-width=".709"/>
  <path d="M329.616,164.735c0,5.418-8.746,5.418-8.746,0s8.746-5.418,8.746,0" fill="#ff647a" stroke="#4682b4" stroke-linecap="round" stroke-linejoin="round" stroke-width=".709"/>
  <path d="M362.129,194.218c0,4.763-7.1,4.763-7.1,0s7.1-4.763,7.1,0" fill="#ff647a" stroke="#4682b4" stroke-linecap="round" stroke-linejoin="round" stroke-width=".709"/>
  <path d="M342.139,140.395c0,5.594-8.45,5.594-8.45,0s8.45-5.594,8.45,0" fill="#ff647a" stroke="#4682b4" stroke-linecap="round" stroke-linejoin="round" stroke-width=".709"/>
  <path d="M355.949,164.735c0,5.418-8.746,5.418-8.746,0s8.746-5.418,8.746,0" fill="#ff647a" stroke="#4682b4" stroke-linecap="round" stroke-linejoin="round" stroke-width=".709"/>
  <path d="M324.81,177.43c0,4.734-6.969,4.734-6.969,0s6.969-4.734,6.969,0" fill="#ff647a" stroke="#4682b4" stroke-linecap="round" stroke-linejoin="round" stroke-width=".709"/>
  <rect x="416.113" y="83.274" width="1.066" height="236.907" fill="#ebebeb"/>
  <path d="M419.586,147.459c0,3.835-2.98,3.835-2.98,0s2.98-3.835,2.98,0" fill="#f7869b" stroke="#4682b4" stroke-linecap="round" stroke-linejoin="round" stroke-width=".709"/>
  <path d="M418.626,144.311c0,3.835-5.839,3.835-5.839,0s5.839-3.835,5.839,0" fill="#f7869b" stroke="#4682b4" stroke-linecap="round" stroke-linejoin="round" stroke-width=".709"/>
  <path d="M424.271,144.426c0,3.835-5.757,3.835-5.757,0s5.757-3.835,5.757,0" fill="#f7869b" stroke="#4682b4" stroke-linecap="round" stroke-linejoin="round" stroke-width=".709"/>
  <path d="M420.845,151.846c0,3.835-6.118,3.835-6.118,0s6.118-3.835,6.118,0" fill="#f7869b" stroke="#4682b4" stroke-linecap="round" stroke-linejoin="round" stroke-width=".709"/>
  <path d="M420.405,139.557c0,4.076-2.649,4.076-2.649,0s2.649-4.067,2.649,0" fill="#f7869b" stroke="#4682b4" stroke-linecap="round" stroke-linejoin="round" stroke-width=".709"/>
  <path d="M418.173,128.132c0,4.449-5.971,4.449-5.971,0s5.971-4.44,5.971,0" fill="#f7869b" stroke="#4682b4" stroke-linecap="round" stroke-linejoin="round" stroke-width=".709"/>
  <path d="M423.09,138.93c0,4.076-6.591,4.076-6.591,0s6.591-4.067,6.591,0" fill="#f7869b" stroke="#4682b4" stroke-linecap="round" stroke-linejoin="round" stroke-width=".709"/>
  <path d="M417.689,135.147c0,4.062-6.052,4.062-6.052,0s6.052-4.062,6.052,0" fill="#f7869b" stroke="#4682b4" stroke-linecap="round" stroke-linejoin="round" stroke-width=".709"/>
  <path d="M420.625,165.141c0,3.835-6.2,3.835-6.2,0s6.2-3.835,6.2,0" fill="#f7869b" stroke="#4682b4" stroke-linecap="round" stroke-linejoin="round" stroke-width=".709"/>
  <path d="M419.29,140.026c-.122,4.539-6.722,4.343-6.599-.196.122-4.529,6.721-4.333,6.599.196" fill="#f7869b" stroke="#4682b4" stroke-linecap="round" stroke-linejoin="round" stroke-width=".709"/>
  <path d="M414.4,165.141c0,3.835-6.208,3.835-6.208,0s6.208-3.835,6.208,0" fill="#f7869b" stroke="#4682b4" stroke-linecap="round" stroke-linejoin="round" stroke-width=".709"/>
  <path d="M426.859,165.141c0,3.835-6.208,3.835-6.208,0s6.208-3.835,6.208,0" fill="#f7869b" stroke="#4682b4" stroke-linecap="round" stroke-linejoin="round" stroke-width=".709"/>
  <path d="M422.624,135.437c0,4.44-6.485,4.44-6.485,0s6.485-4.449,6.485,0" fill="#f7869b" stroke="#4682b4" stroke-linecap="round" stroke-linejoin="round" stroke-width=".709"/>
  <path d="M421.332,104.026c0,6.016-8.567,6.016-8.567,0s8.567-6.028,8.567,0" fill="#f7869b" stroke="#4682b4" stroke-linecap="round" stroke-linejoin="round" stroke-width=".709"/>
  <path d="M252.866,210.143c0,4.355-5.278,4.355-5.278,0s5.278-4.364,5.278,0" fill="#ff2439" stroke="#4682b4" stroke-linecap="round" stroke-linejoin="round" stroke-width=".709"/>
  <path d="M247.566,209.152c0,4.355-5.278,4.355-5.278,0,0-4.364,5.278-4.364,5.278,0" fill="#ff2439" stroke="#4682b4" stroke-linecap="round" stroke-linejoin="round" stroke-width=".709"/>
  <path d="M256.146,215.059c0,3.966-5.636,3.966-5.636,0s5.636-3.966,5.636,0" fill="#ff3145" stroke="#4682b4" stroke-linecap="round" stroke-linejoin="round" stroke-width=".709"/>
  <path d="M258.159,209.152c0,4.355-6.712,4.355-6.712,0s6.712-4.364,6.712,0" fill="#ff3145" stroke="#4682b4" stroke-linecap="round" stroke-linejoin="round" stroke-width=".709"/>
  <path d="M254.788,276.774c-.634,6.632-9.916,5.751-9.282-.881.634-6.632,9.916-5.751,9.282.881" fill="#ff2439" stroke="#4682b4" stroke-linecap="round" stroke-linejoin="round" stroke-width=".709"/>
  <path d="M251.273,203.589c0,3.085-2.085,3.085-2.085,0s2.085-3.085,2.085,0" fill="#d32a2a" stroke="#4682b4" stroke-linecap="round" stroke-linejoin="round" stroke-width=".709"/>
  <path d="M254.083,198.795c0,3.454-5.273,3.454-5.273,0s5.273-3.454,5.273,0" fill="#ff2439" stroke="#4682b4" stroke-linecap="round" stroke-linejoin="round" stroke-width=".709"/>
  <path d="M249.179,203.589c0,3.085-2.085,3.085-2.085,0s2.085-3.085,2.085,0" fill="#6b171d" stroke="#4682b4" stroke-linecap="round" stroke-linejoin="round" stroke-width=".709"/>
  <path d="M249.179,198.519c0,3.085-4.176,3.085-4.176,0s4.176-3.085,4.176,0" fill="#d32a2a" stroke="#4682b4" stroke-linecap="round" stroke-linejoin="round" stroke-width=".709"/>
  <path d="M253.364,203.589c0,3.085-2.082,3.085-2.082,0s2.082-3.085,2.082,0" fill="#ff2439" stroke="#4682b4" stroke-linecap="round" stroke-linejoin="round" stroke-width=".709"/>
  <path d="M258.657,197.313c0,4.004-5.801,4.004-5.801,0s5.801-4.004,5.801,0" fill="#ff2439" stroke="#4682b4" stroke-linecap="round" stroke-linejoin="round" stroke-width=".709"/>
  <path d="M247.086,203.589c0,3.085-2.082,3.085-2.082,0s2.082-3.085,2.082,0" fill="#d32a2a" stroke="#4682b4" stroke-linecap="round" stroke-linejoin="round" stroke-width=".709"/>
  <path d="M251.447,206.482c0,3.559-5.506,3.559-5.506,0s5.506-3.559,5.506,0" fill="#ff3145" stroke="#4682b4" stroke-linecap="round" stroke-linejoin="round" stroke-width=".709"/>
  <path d="M259.903,204.046c0,4.248-6.499,4.248-6.499,0s6.499-4.248,6.499,0" fill="#ff2439" stroke="#4682b4" stroke-linecap="round" stroke-linejoin="round" stroke-width=".709"/>
  <path d="M256.146,206.482c0,3.559-5.537,3.559-5.537,0s5.537-3.559,5.537,0" fill="#ff3145" stroke="#4682b4" stroke-linecap="round" stroke-linejoin="round" stroke-width=".709"/>
  <path d="M251.182,193.691c-.191,3.937-5.956,3.63-5.764-.307.191-3.937,5.956-3.63,5.764.307" fill="#ff3145" stroke="#4682b4" stroke-linecap="round" stroke-linejoin="round" stroke-width=".709"/>
  <path d="M247.502,197.313c0,4.004-6.033,4.004-6.033,0s6.033-4.004,6.033,0" fill="#ff3145" stroke="#4682b4" stroke-linecap="round" stroke-linejoin="round" stroke-width=".709"/>
  <path d="M245.377,215.059c0,3.966-5.105,3.966-5.105,0s5.105-3.966,5.105,0" fill="#ff2439" stroke="#4682b4" stroke-linecap="round" stroke-linejoin="round" stroke-width=".709"/>
  <path d="M251.986,200.607c0,4.004-5.329,4.004-5.329,0s5.329-4.004,5.329,0" fill="#ff2439" stroke="#4682b4" stroke-linecap="round" stroke-linejoin="round" stroke-width=".709"/>
  <rect x="83.43" y="89.224" width="1.067" height="238.891" fill="#ebebeb"/>
  <path d="M103.091,262.252c0,6.356-8.502,6.356-8.502,0s8.502-6.356,8.502,0" fill="#b50808" stroke="#4682b4" stroke-linecap="round" stroke-linejoin="round" stroke-width=".709"/>
  <path d="M70.932,246.78c0,5.249-6.884,5.249-6.884,0s6.884-5.259,6.884,0" fill="#b50808" stroke="#4682b4" stroke-linecap="round" stroke-linejoin="round" stroke-width=".709"/>
  <path d="M105.034,246.708c0,5.785-8.288,5.785-8.288,0s8.288-5.797,8.288,0" fill="#b50808" stroke="#4682b4" stroke-linecap="round" stroke-linejoin="round" stroke-width=".709"/>
  <path d="M96.363,233.623c0,5.363-7.777,5.363-7.777,0s7.777-5.363,7.777,0" fill="#b50808" stroke="#4682b4" stroke-linecap="round" stroke-linejoin="round" stroke-width=".709"/>
  <path d="M113.357,246.708c0,5.785-8.288,5.785-8.288,0s8.288-5.797,8.288,0" fill="#b50808" stroke="#4682b4" stroke-linecap="round" stroke-linejoin="round" stroke-width=".709"/>
  <path d="M75.462,233.623c0,5.363-8.261,5.363-8.261,0s8.261-5.363,8.261,0" fill="#b50808" stroke="#4682b4" stroke-linecap="round" stroke-linejoin="round" stroke-width=".709"/>
  <path d="M83.231,240.229c.007,3.492-3.792,3.501-3.799.009s3.792-3.501,3.799-.009" fill="#ff981d" stroke="#4682b4" stroke-linecap="round" stroke-linejoin="round" stroke-width=".709"/>
  <path d="M106.327,237.984c.013,5.826-8.235,5.844-8.249.018-.013-5.826,8.235-5.844,8.249-.018" fill="#b50808" stroke="#4682b4" stroke-linecap="round" stroke-linejoin="round" stroke-width=".709"/>
  <path d="M110.76,260.054c0,6.356-8.502,6.356-8.502,0s8.502-6.356,8.502,0" fill="#ff981d" stroke="#4682b4" stroke-linecap="round" stroke-linejoin="round" stroke-width=".709"/>
  <path d="M80.375,260.054c0,6.356-8.513,6.356-8.513,0s8.513-6.356,8.513,0" fill="#b50808" stroke="#4682b4" stroke-linecap="round" stroke-linejoin="round" stroke-width=".709"/>
  <path d="M84.976,243.079c.01,4.794-7.44,4.811-7.45.017s7.44-4.811,7.45-.017" fill="#b50808" stroke="#4682b4" stroke-linecap="round" stroke-linejoin="round" stroke-width=".709"/>
  <path d="M57.107,246.78c0,5.249-6.884,5.249-6.884,0s6.884-5.259,6.884,0" fill="#b50808" stroke="#4682b4" stroke-linecap="round" stroke-linejoin="round" stroke-width=".709"/>
  <path d="M91.702,262.672c0,1.483-4.662,1.483-4.662,0,0-3.085,4.662-3.085,4.662,0" fill="#ff981d" stroke="#4682b4" stroke-linecap="round" stroke-linejoin="round" stroke-width=".709"/>
  <path d="M121.679,246.708c0,5.785-8.288,5.785-8.288,0s8.288-5.797,8.288,0" fill="#b50808" stroke="#4682b4" stroke-linecap="round" stroke-linejoin="round" stroke-width=".709"/>
  <rect x="169.936" y="87.036" width="1.067" height="235.129" fill="#ebebeb"/>
  <path d="M173.419,227.19c0,4.644-5.605,4.644-5.605,0s5.605-4.634,5.605,0" fill="#e21e1e" stroke="#4682b4" stroke-linecap="round" stroke-linejoin="round" stroke-width=".709"/>
  <path d="M167.791,227.19c0,4.644-5.598,4.644-5.598,0s5.598-4.634,5.598,0" fill="#e21e1e" stroke="#4682b4" stroke-linecap="round" stroke-linejoin="round" stroke-width=".709"/>
  <path d="M172.786,237.026c0,3.661-3.9,3.661-3.9,0s3.9-3.661,3.9,0" fill="#e21e1e" stroke="#4682b4" stroke-linecap="round" stroke-linejoin="round" stroke-width=".709"/>
  <path d="M179.048,227.19c0,4.644-5.605,4.644-5.605,0s5.605-4.634,5.605,0" fill="#e21e1e" stroke="#4682b4" stroke-linecap="round" stroke-linejoin="round" stroke-width=".709"/>
  <path d="M162.17,227.19c0,4.644-5.605,4.644-5.605,0s5.605-4.634,5.605,0" fill="#e21e1e" stroke="#4682b4" stroke-linecap="round" stroke-linejoin="round" stroke-width=".709"/>
  <path d="M175.213,221.893c0,3.085-4.522,3.085-4.522,0s4.522-3.085,4.522,0" fill="#e21e1e" stroke="#4682b4" stroke-linecap="round" stroke-linejoin="round" stroke-width=".709"/>
  <path d="M171.673,215.49c0,4.863-6.792,4.863-6.792,0s6.792-4.863,6.792,0" fill="#e21e1e" stroke="#4682b4" stroke-linecap="round" stroke-linejoin="round" stroke-width=".709"/>
  <path d="M172.895,220.819c0,3.519-5.493,3.519-5.493,0s5.493-3.519,5.493,0" fill="#e21e1e" stroke="#4682b4" stroke-linecap="round" stroke-linejoin="round" stroke-width=".709"/>
  <path d="M184.676,227.19c0,4.644-5.605,4.644-5.605,0s5.605-4.634,5.605,0" fill="#e21e1e" stroke="#4682b4" stroke-linecap="round" stroke-linejoin="round" stroke-width=".709"/>
  <path d="M178.502,215.49c0,4.863-6.801,4.863-6.801,0s6.801-4.863,6.801,0" fill="#e21e1e" stroke="#4682b4" stroke-linecap="round" stroke-linejoin="round" stroke-width=".709"/>
  <path d="M175.213,233.063c0,4.435-6.119,4.435-6.119,0s6.119-4.435,6.119,0" fill="#e21e1e" stroke="#4682b4" stroke-linecap="round" stroke-linejoin="round" stroke-width=".709"/>
  <path d="M191.813,226.845c0,4.183-7.114,4.183-7.114,0s7.114-4.175,7.114,0" fill="#e21e1e" stroke="#4682b4" stroke-linecap="round" stroke-linejoin="round" stroke-width=".709"/>
  <path d="M178.712,233.063c0,4.435-6.35,4.435-6.35,0s6.35-4.435,6.35,0" fill="#e21e1e" stroke="#4682b4" stroke-linecap="round" stroke-linejoin="round" stroke-width=".709"/>
  <path d="M179.591,221.322c0,3.783-5.628,3.783-5.628,0s5.628-3.783,5.628,0" fill="#e21e1e" stroke="#4682b4" stroke-linecap="round" stroke-linejoin="round" stroke-width=".709"/>
  <path d="M169.138,220.947c0,3.69-5.664,3.69-5.664,0s5.664-3.69,5.664,0" fill="#e21e1e" stroke="#4682b4" stroke-linecap="round" stroke-linejoin="round" stroke-width=".709"/>
  <path d="M169.074,233.063c0,4.435-4.803,4.435-4.803,0s4.803-4.435,4.803,0" fill="#e21e1e" stroke="#4682b4" stroke-linecap="round" stroke-linejoin="round" stroke-width=".709"/>
  <path d="M81.752,262.644c0,5.419-8.559,5.419-8.559,0s8.559-5.419,8.559,0" fill="#b50808" stroke="#4682b4" stroke-linecap="round" stroke-linejoin="round" stroke-width=".709"/>
  <path d="M95,263.636c0,5.419-8.559,5.419-8.559,0s8.559-5.419,8.559,0" fill="#b50808" stroke="#4682b4" stroke-linecap="round" stroke-linejoin="round" stroke-width=".709"/>
  <path d="M88.376,221.989c0,5.419-8.559,5.419-8.559,0s8.559-5.419,8.559,0" fill="#b50808" stroke="#4682b4" stroke-linecap="round" stroke-linejoin="round" stroke-width=".709"/>
  <path d="M82.786,233.409c0,5.419-8.559,5.419-8.559,0s8.559-5.419,8.559,0" fill="#b50808" stroke="#4682b4" stroke-linecap="round" stroke-linejoin="round" stroke-width=".709"/>
  <path d="M98.487,239.518c0,5.419-8.559,5.419-8.559,0s8.559-5.419,8.559,0" fill="#b50808" stroke="#4682b4" stroke-linecap="round" stroke-linejoin="round" stroke-width=".709"/>
  <path d="M343.3,200.145c0,4.656-7.704,4.656-7.704,0s7.704-4.647,7.704,0" fill="#ff647a" stroke="#4682b4" stroke-linecap="round" stroke-linejoin="round" stroke-width=".709"/>
  <path d="M259.122,219.765c.081,4.924-7.636,5.064-7.717.14s7.636-5.064,7.717-.14" fill="#ff3145" stroke="#4682b4" stroke-linecap="round" stroke-linejoin="round" stroke-width=".709"/>
  <path d="M253.444,219.765c.081,4.924-7.636,5.064-7.717.14-.081-4.924,7.636-5.064,7.717-.14" fill="#ff2439" stroke="#4682b4" stroke-linecap="round" stroke-linejoin="round" stroke-width=".709"/>
  <path d="M248.713,219.765c.081,4.924-7.636,5.064-7.717.14s7.636-5.064,7.717-.14" fill="#f72626" stroke="#4682b4" stroke-linecap="round" stroke-linejoin="round" stroke-width=".709"/>
  <path d="M243.035,219.765c.081,4.924-7.636,5.064-7.717.14-.081-4.924,7.636-5.064,7.717-.14" fill="#ff3145" stroke="#4682b4" stroke-linecap="round" stroke-linejoin="round" stroke-width=".709"/>
  <path d="M254.39,226.706c.081,4.924-7.636,5.064-7.717.14-.081-4.924,7.636-5.064,7.717-.14" fill="#ff3145" stroke="#4682b4" stroke-linecap="round" stroke-linejoin="round" stroke-width=".709"/>
  <path d="M271.133,209.11c.081,4.924-7.636,5.064-7.717.14s7.636-5.064,7.717-.14" fill="#ff2439" stroke="#4682b4" stroke-linecap="round" stroke-linejoin="round" stroke-width=".709"/>
  <path d="M275.864,209.11c.081,4.924-7.636,5.064-7.717.14-.081-4.924,7.636-5.064,7.717-.14" fill="#ff3145" stroke="#4682b4" stroke-linecap="round" stroke-linejoin="round" stroke-width=".709"/>
  <path d="M244.073,209.758c.081,4.924-7.636,5.064-7.717.14-.081-4.924,7.636-5.064,7.717-.14" fill="#ff3145" stroke="#4682b4" stroke-linecap="round" stroke-linejoin="round" stroke-width=".709"/>
  <path d="M239.342,209.758c.081,4.924-7.636,5.064-7.717.14s7.636-5.064,7.717-.14" fill="#ff3145" stroke="#4682b4" stroke-linecap="round" stroke-linejoin="round" stroke-width=".709"/>
  <path d="M234.611,208.767c.081,4.924-7.636,5.064-7.717.14s7.636-5.064,7.717-.14" fill="#ff3145" stroke="#4682b4" stroke-linecap="round" stroke-linejoin="round" stroke-width=".709"/>
  <path d="M247.858,203.809c.081,4.924-7.636,5.064-7.717.14s7.636-5.064,7.717-.14" fill="#ff2439" stroke="#4682b4" stroke-linecap="round" stroke-linejoin="round" stroke-width=".709"/>
  <path d="M252.01,215.495c.081,4.924-7.636,5.064-7.717.14s7.636-5.064,7.717-.14" fill="#ff3145" stroke="#4682b4" stroke-linecap="round" stroke-linejoin="round" stroke-width=".709"/>
  <path d="M266.306,203.107c.081,4.924-7.636,5.064-7.717.14-.081-4.924,7.636-5.064,7.717-.14" fill="#ff3145" stroke="#4682b4" stroke-linecap="round" stroke-linejoin="round" stroke-width=".709"/>
  <path d="M184.31,221.693c-1.012,4.031-6.895,2.526-5.882-1.505,1.012-4.031,6.895-2.526,5.882,1.505" fill="#e21e1e" stroke="#4682b4" stroke-linecap="round" stroke-linejoin="round" stroke-width=".709"/>
  <path d="M179.593,224.907c0,5.053-7.803,5.053-7.802,0,0-5.053,7.803-5.053,7.802,0" fill="#e21e1e" stroke="#4682b4" stroke-linecap="round" stroke-linejoin="round" stroke-width=".709"/>
  <path d="M172.023,224.907c0,5.053-7.803,5.053-7.802,0s7.803-5.053,7.802,0" fill="#e21e1e" stroke="#4682b4" stroke-linecap="round" stroke-linejoin="round" stroke-width=".709"/>
  <path d="M157.829,226.89c0,5.053-7.803,5.053-7.802,0,0-5.053,7.803-5.053,7.802,0" fill="#e21e1e" stroke="#4682b4" stroke-linecap="round" stroke-linejoin="round" stroke-width=".709"/>
  <path d="M175.622,244.374c0,5.053-7.803,5.053-7.802,0,0-5.053,7.803-5.053,7.802,0" fill="#e21e1e" stroke="#4682b4" stroke-linecap="round" stroke-linejoin="round" stroke-width=".709"/>
  <path d="M170.891,239.416c0,5.053-7.803,5.053-7.802,0,0-5.053,7.803-5.053,7.802,0" fill="#e21e1e" stroke="#4682b4" stroke-linecap="round" stroke-linejoin="round" stroke-width=".709"/>
  <path d="M178.461,239.416c0,5.053-7.803,5.053-7.802,0s7.803-5.053,7.802,0" fill="#e21e1e" stroke="#4682b4" stroke-linecap="round" stroke-linejoin="round" stroke-width=".709"/>
  <path d="M183.192,239.416c0,5.053-7.803,5.053-7.802,0,0-5.053,7.803-5.053,7.802,0" fill="#e21e1e" stroke="#4682b4" stroke-linecap="round" stroke-linejoin="round" stroke-width=".709"/>
  <path d="M165.737,232.567c0,5.053-7.803,5.053-7.802,0s7.803-5.053,7.802,0" fill="#e21e1e" stroke="#4682b4" stroke-linecap="round" stroke-linejoin="round" stroke-width=".709"/>
  <rect x="50.516" y="308.028" width="411.506" height="1.066" fill="#ebebeb"/>
  <path d="M88.121,308.795c0,5.419-8.559,5.419-8.559,0s8.559-5.419,8.559,0" fill="#b50808" stroke="#4682b4" stroke-linecap="round" stroke-linejoin="round" stroke-width=".709"/>
  <line x1="251.934" y1="269.066" x2="656.807" y2="887.816" fill="none"/>
  <text/>
  <path d="M110.712,260.126c0,5.645-7.877,5.645-7.877,0s7.877-5.645,7.877,0" fill="#b50808" stroke="#4682b4" stroke-linecap="round" stroke-linejoin="round" stroke-width=".709"/>
  <path d="M84.217,267.067c0,5.645-7.877,5.645-7.877,0s7.877-5.645,7.877,0" fill="#b50808" stroke="#4682b4" stroke-linecap="round" stroke-linejoin="round" stroke-width=".709"/>
  <path d="M89.202,240.518c0,5.645-7.877,5.645-7.877,0s7.877-5.645,7.877,0" fill="none" stroke="#000" stroke-miterlimit="10" stroke-width=".55"/>
  <path d="M88.525,232.988c0,5.645-7.877,5.645-7.877,0s7.877-5.645,7.877,0" fill="#b50808" stroke="#4682b4" stroke-linecap="round" stroke-linejoin="round" stroke-width=".709"/>
  <path d="M87.579,227.038c0,5.645-7.877,5.645-7.877,0s7.877-5.645,7.877,0" fill="#b50808" stroke="#4682b4" stroke-linecap="round" stroke-linejoin="round" stroke-width=".709"/>
  <path d="M103.665,232.988c0,5.645-7.877,5.645-7.877,0s7.877-5.645,7.877,0" fill="#b50808" stroke="#4682b4" stroke-linecap="round" stroke-linejoin="round" stroke-width=".709"/>
  <path d="M64.66,247.419c0,5.645-7.877,5.645-7.877,0s7.877-5.645,7.877,0" fill="#b50808" stroke="#4682b4" stroke-linecap="round" stroke-linejoin="round" stroke-width=".709"/>
  <path d="M96.832,247.419c0,5.645-7.877,5.645-7.877,0s7.877-5.645,7.877,0" fill="#b50808" stroke="#4682b4" stroke-linecap="round" stroke-linejoin="round" stroke-width=".709"/>
  <path d="M97.779,259.318c0,5.645-7.877,5.645-7.877,0s7.877-5.645,7.877,0" fill="#b50808" stroke="#4682b4" stroke-linecap="round" stroke-linejoin="round" stroke-width=".709"/>
  <path d="M88.316,247.419c0,5.645-7.877,5.645-7.877,0s7.877-5.645,7.877,0" fill="#b50808" stroke="#4682b4" stroke-linecap="round" stroke-linejoin="round" stroke-width=".709"/>
  <path d="M81.693,249.402c0,5.645-7.877,5.645-7.877,0s7.877-5.645,7.877,0" fill="#b50808" stroke="#4682b4" stroke-linecap="round" stroke-linejoin="round" stroke-width=".709"/>
  <path d="M93.047,237.503c0,5.645-7.877,5.645-7.877,0s7.877-5.645,7.877,0" fill="#b50808" stroke="#4682b4" stroke-linecap="round" stroke-linejoin="round" stroke-width=".709"/>
  <path d="M93.994,243.453c0,5.645-7.877,5.645-7.877,0s7.877-5.645,7.877,0" fill="#b50808" stroke="#4682b4" stroke-linecap="round" stroke-linejoin="round" stroke-width=".709"/>
  <path d="M84.531,239.486c0,5.645-7.877,5.645-7.877,0s7.877-5.645,7.877,0" fill="#b50808" stroke="#4682b4" stroke-linecap="round" stroke-linejoin="round" stroke-width=".709"/>
  <path d="M76.961,247.419c0,5.645-7.877,5.645-7.877,0s7.877-5.645,7.877,0" fill="#b50808" stroke="#4682b4" stroke-linecap="round" stroke-linejoin="round" stroke-width=".709"/>
  <path d="M77.908,240.478c0,5.645-7.877,5.645-7.877,0s7.877-5.645,7.877,0" fill="#b50808" stroke="#4682b4" stroke-linecap="round" stroke-linejoin="round" stroke-width=".709"/>
  <path d="M90.209,260.31c0,5.645-7.877,5.645-7.877,0s7.877-5.645,7.877,0" fill="#b50808" stroke="#4682b4" stroke-linecap="round" stroke-linejoin="round" stroke-width=".709"/>
  <path d="M87.37,262.293c0,5.645-7.877,5.645-7.877,0s7.877-5.645,7.877,0" fill="#b50808" stroke="#4682b4" stroke-linecap="round" stroke-linejoin="round" stroke-width=".709"/>
  <path d="M174.659,292.137c0,5.797-8.405,5.797-8.405,0,0-5.797,8.405-5.797,8.405,0" fill="#e21e1e" stroke="#4682b4" stroke-linecap="round" stroke-linejoin="round" stroke-width=".709"/>
  <path d="M341.008,248.447c0,4.656-7.704,4.656-7.704,0s7.704-4.647,7.704,0" fill="#ff647a" stroke="#4682b4" stroke-linecap="round" stroke-linejoin="round" stroke-width=".709"/>
  <rect x="52.679" y="182.914" width="412.751" height=".533" fill="#ebebeb"/>
  <path d="M251.046,181.875c.081,4.924-7.636,5.064-7.717.14-.081-4.924,7.636-5.064,7.717-.14" fill="#ff3145" stroke="#4682b4" stroke-linecap="round" stroke-linejoin="round" stroke-width=".709"/>
  <path d="M258.366,181.711c.081,4.924-7.636,5.064-7.717.14s7.636-5.064,7.717-.14" fill="#ff3145" stroke="#4682b4" stroke-linecap="round" stroke-linejoin="round" stroke-width=".709"/>
  <rect x="45.41" y="253.648" width="419.502" height="1.066" fill="#ebebeb"/>
  <path d="M77.586,254.62c0,5.645-7.866,5.645-7.866,0s7.866-5.645,7.866,0" fill="#b50808" stroke="#4682b4" stroke-linecap="round" stroke-linejoin="round" stroke-width=".709"/>
  <path d="M101.303,254.62c0,5.645-7.866,5.645-7.866,0s7.866-5.645,7.866,0" fill="#b50808" stroke="#4682b4" stroke-linecap="round" stroke-linejoin="round" stroke-width=".709"/>
  <path d="M109.213,254.62c0,5.645-7.877,5.645-7.877,0s7.877-5.645,7.877,0" fill="#b50808" stroke="#4682b4" stroke-linecap="round" stroke-linejoin="round" stroke-width=".709"/>
  <path d="M61.778,254.62c0,5.645-7.877,5.645-7.877,0s7.877-5.645,7.877,0" fill="#b50808" stroke="#4682b4" stroke-linecap="round" stroke-linejoin="round" stroke-width=".709"/>
  <path d="M92.713,254.176c0,5.645-7.877,5.645-7.877,0s7.877-5.645,7.877,0" fill="#b50808" stroke="#4682b4" stroke-linecap="round" stroke-linejoin="round" stroke-width=".709"/>
  <path d="M86.11,254.176c0,5.645-7.877,5.645-7.877,0s7.877-5.645,7.877,0" fill="#b50808" stroke="#4682b4" stroke-linecap="round" stroke-linejoin="round" stroke-width=".709"/>
  <path d="M69.391,255.352c0,5.645-7.877,5.645-7.877,0s7.877-5.645,7.877,0" fill="#b50808" stroke="#4682b4" stroke-linecap="round" stroke-linejoin="round" stroke-width=".709"/>
  <path d="M341.008,256.379c0,4.656-7.704,4.656-7.704,0s7.704-4.647,7.704,0" fill="#ff647a" stroke="#4682b4" stroke-linecap="round" stroke-linejoin="round" stroke-width=".709"/>
  <path d="M344.774,182.963c0,4.547-7.455,4.547-7.455,0s7.455-4.547,7.455,0" fill="#ff647a" stroke="#4682b4" stroke-linecap="round" stroke-linejoin="round" stroke-width=".709"/>
  <path d="M339.558,185.204c0,4.547-7.465,4.547-7.465,0s7.465-4.547,7.465,0" fill="#ff647a" stroke="#4682b4" stroke-linecap="round" stroke-linejoin="round" stroke-width=".709"/>
  <path d="M254.183,289.067c-.634,6.632-9.916,5.751-9.282-.881s9.916-5.751,9.282.881" fill="#ff2439" stroke="#4682b4" stroke-linecap="round" stroke-linejoin="round" stroke-width=".709"/>
  <path id="_x3C_Line_x3E_" d="M249.31,294.841c.988,25.159,66.585,12.544,119.688-14.478" fill="none" fill-rule="evenodd" stroke="#000" stroke-miterlimit="10" stroke-width=".55"/>
  <line x1="397.592" y1="102.094" x2="411.785" y2="102.094" fill="none" stroke="#000" stroke-miterlimit="10" stroke-width=".75"/>
  <path id="_x3C_Line_x3E_1" data-name="_x3C_Line_x3E_" d="M190.47,149.323c1.535,22.526,22.998,36.813,50.369,31.478" fill="none" stroke="#000" stroke-miterlimit="10" stroke-width=".55"/>
  <path id="_x3C_Line_x3E_2" data-name="_x3C_Line_x3E_" d="M416.647,187.244c0,17.76-3.715,34.946-8.491,38.566" fill="none" stroke="#000" stroke-miterlimit="10" stroke-width=".55"/>
  <path d="M415.953,125.358c0,6.016-8.567,6.016-8.567,0s8.567-6.028,8.567,0" fill="#f7869b" stroke="#4682b4" stroke-linecap="round" stroke-linejoin="round" stroke-width=".709"/>
  <path d="M424.953,128.358c0,6.016-8.567,6.016-8.567,0s8.567-6.028,8.567,0" fill="#f7869b" stroke="#4682b4" stroke-linecap="round" stroke-linejoin="round" stroke-width=".709"/>
  <path d="M422.953,123.358c0,6.016-8.567,6.016-8.567,0s8.567-6.028,8.567,0" fill="#f7869b" stroke="#4682b4" stroke-linecap="round" stroke-linejoin="round" stroke-width=".709"/>
  <path d="M415.237,143.913c0,6.016-8.567,6.016-8.567,0s8.567-6.028,8.567,0" fill="#f7869b" stroke="#4682b4" stroke-linecap="round" stroke-linejoin="round" stroke-width=".709"/>
  <path d="M409.237,143.913c0,6.016-8.567,6.016-8.567,0s8.567-6.028,8.567,0" fill="#f7869b" stroke="#4682b4" stroke-linecap="round" stroke-linejoin="round" stroke-width=".709"/>
  <path d="M413.237,138.913c0,6.016-8.567,6.016-8.567,0s8.567-6.028,8.567,0" fill="#f7869b" stroke="#4682b4" stroke-linecap="round" stroke-linejoin="round" stroke-width=".709"/>
  <path d="M427.497,139.65c0,5.056-7.509,5.056-7.509,0s7.509-5.056,7.509,0" fill="#f7869b" stroke="#4682b4" stroke-linecap="round" stroke-linejoin="round" stroke-width=".709"/>
  <path d="M433.237,138.913c0,6.016-8.567,6.016-8.567,0s8.567-6.028,8.567,0" fill="#f7869b" stroke="#4682b4" stroke-linecap="round" stroke-linejoin="round" stroke-width=".709"/>
  <path d="M418.76,156.823c0,6.016-8.567,6.016-8.567,0s8.567-6.028,8.567,0" fill="#f7869b" stroke="#4682b4" stroke-linecap="round" stroke-linejoin="round" stroke-width=".709"/>
  <path d="M424.855,162.492c0,4.519-6.2,4.519-6.2,0s6.2-4.51,6.2,0" fill="#f7869b" stroke="#4682b4" stroke-linecap="round" stroke-linejoin="round" stroke-width=".709"/>
  <path d="M418.63,161.986c0,3.843-6.208,3.843-6.208,0s6.208-3.835,6.208,0" fill="#f7869b" stroke="#4682b4" stroke-linecap="round" stroke-linejoin="round" stroke-width=".709"/>
  <path d="M431.237,144.913c0,6.016-8.567,6.016-8.567,0s8.567-6.028,8.567,0" fill="#f7869b" stroke="#4682b4" stroke-linecap="round" stroke-linejoin="round" stroke-width=".709"/>
  <path d="M424.76,156.823c0,6.016-8.567,6.016-8.567,0s8.567-6.028,8.567,0" fill="#f7869b" stroke="#4682b4" stroke-linecap="round" stroke-linejoin="round" stroke-width=".709"/>
  <path d="M435.632,171.462c0,6.016-8.567,6.016-8.567,0s8.567-6.028,8.567,0" fill="#f7869b" stroke="#4682b4" stroke-linecap="round" stroke-linejoin="round" stroke-width=".709"/>
  <path d="M418.632,171.462c0,6.016-8.567,6.016-8.567,0s8.567-6.028,8.567,0" fill="#f7869b" stroke="#4682b4" stroke-linecap="round" stroke-linejoin="round" stroke-width=".709"/>
  <path d="M410.632,171.462c0,6.016-8.567,6.016-8.567,0s8.567-6.028,8.567,0" fill="#f7869b" stroke="#4682b4" stroke-linecap="round" stroke-linejoin="round" stroke-width=".709"/>
  <path d="M422.456,177.674c0,6.016-8.567,6.016-8.567,0s8.567-6.028,8.567,0" fill="#f7869b" stroke="#4682b4" stroke-linecap="round" stroke-linejoin="round" stroke-width=".709"/>
  <path d="M426.632,171.462c0,6.016-8.567,6.016-8.567,0s8.567-6.028,8.567,0" fill="#f7869b" stroke="#4682b4" stroke-linecap="round" stroke-linejoin="round" stroke-width=".709"/>
  <path d="M421.844,147.255c0,6.016-8.567,6.016-8.567,0s8.567-6.028,8.567,0" fill="#f7869b" stroke="#4682b4" stroke-linecap="round" stroke-linejoin="round" stroke-width=".709"/>
  <path d="M415.76,150.823c0,6.016-8.567,6.016-8.567,0s8.567-6.028,8.567,0" fill="#f7869b" stroke="#4682b4" stroke-linecap="round" stroke-linejoin="round" stroke-width=".709"/>
  <path d="M427.76,150.823c0,6.016-8.567,6.016-8.567,0s8.567-6.028,8.567,0" fill="#f7869b" stroke="#4682b4" stroke-linecap="round" stroke-linejoin="round" stroke-width=".709"/>
  <path d="M174.378,302.289c0,5.797-8.405,5.797-8.405,0,0-5.797,8.405-5.797,8.405,0" fill="#e21e1e" stroke="#4682b4" stroke-linecap="round" stroke-linejoin="round" stroke-width=".709"/>
  <path d="M198.6,226.862c0,5.797-8.405,5.797-8.405,0,0-5.797,8.405-5.797,8.405,0" fill="#e21e1e" stroke="#4682b4" stroke-linecap="round" stroke-linejoin="round" stroke-width=".709"/>
  <path d="M175.6,247.862c0,5.797-8.405,5.797-8.405,0,0-5.797,8.405-5.797,8.405,0" fill="#e21e1e" stroke="#4682b4" stroke-linecap="round" stroke-linejoin="round" stroke-width=".709"/>
  <path d="M153.623,226.321c0,5.797-8.405,5.797-8.405,0,0-5.797,8.405-5.797,8.405,0" fill="#e21e1e" stroke="#4682b4" stroke-linecap="round" stroke-linejoin="round" stroke-width=".709"/>
  <path d="M147.623,226.321c0,5.797-8.405,5.797-8.405,0,0-5.797,8.405-5.797,8.405,0" fill="#e21e1e" stroke="#4682b4" stroke-linecap="round" stroke-linejoin="round" stroke-width=".709"/>
  <path d="M186.623,215.321c0,5.797-8.405,5.797-8.405,0,0-5.797,8.405-5.797,8.405,0" fill="#e21e1e" stroke="#4682b4" stroke-linecap="round" stroke-linejoin="round" stroke-width=".709"/>
  <path d="M190.623,221.321c0,5.797-8.405,5.797-8.405,0,0-5.797,8.405-5.797,8.405,0" fill="#e21e1e" stroke="#4682b4" stroke-linecap="round" stroke-linejoin="round" stroke-width=".709"/>
  <path d="M165.623,215.321c0,5.797-8.405,5.797-8.405,0,0-5.797,8.405-5.797,8.405,0" fill="#e21e1e" stroke="#4682b4" stroke-linecap="round" stroke-linejoin="round" stroke-width=".709"/>
  <path d="M166.623,221.321c0,5.797-8.405,5.797-8.405,0,0-5.797,8.405-5.797,8.405,0" fill="#e21e1e" stroke="#4682b4" stroke-linecap="round" stroke-linejoin="round" stroke-width=".709"/>
  <path d="M159.623,220.321c0,5.797-8.405,5.797-8.405,0,0-5.797,8.405-5.797,8.405,0" fill="#e21e1e" stroke="#4682b4" stroke-linecap="round" stroke-linejoin="round" stroke-width=".709"/>
  <path d="M173.722,201.25c0,5.797-8.405,5.797-8.405,0,0-5.797,8.405-5.797,8.405,0" fill="#e21e1e" stroke="#4682b4" stroke-linecap="round" stroke-linejoin="round" stroke-width=".709"/>
  <path d="M178.753,207.786c0,5.797-8.405,5.797-8.405,0,0-5.797,8.405-5.797,8.405,0" fill="#e21e1e" stroke="#4682b4" stroke-linecap="round" stroke-linejoin="round" stroke-width=".709"/>
  <path d="M172.103,210.804c0,4.351-6.677,4.351-6.677,0s6.677-4.351,6.677,0" fill="#e21e1e" stroke="#4682b4" stroke-linecap="round" stroke-linejoin="round" stroke-width=".709"/>
  <path d="M192.606,233.142c0,5.797-8.405,5.797-8.405,0,0-5.797,8.405-5.797,8.405,0" fill="#e21e1e" stroke="#4682b4" stroke-linecap="round" stroke-linejoin="round" stroke-width=".709"/>
  <path d="M185.606,233.142c0,5.797-8.405,5.797-8.405,0,0-5.797,8.405-5.797,8.405,0" fill="#e21e1e" stroke="#4682b4" stroke-linecap="round" stroke-linejoin="round" stroke-width=".709"/>
<style>
#g-template_all_annotations-medium-interactions-img rect, #g-template_all_annotations-medium-interactions-img circle, #g-template_all_annotations-medium-interactions-img path, #g-template_all_annotations-medium-interactions-img line, #g-template_all_annotations-medium-interactions-img polyline, #g-template_all_annotations-medium-interactions-img polygon { vector-effect: non-scaling-stroke; }
</style>
</svg>
